<svg xmlns="http://www.w3.org/2000/svg" viewBox="0 0 28.97 26.97"><defs><style>.cls-1{fill:#1f305f;}</style></defs><title>Asset 5</title><g id="Layer_2" data-name="Layer 2"><g id="Layer_1-2" data-name="Layer 1"><path class="cls-1" d="M.93,15.49a11.5,11.5,0,0,0,3.54,4.23,15.83,15.83,0,0,0,7.74,3.05,2.81,2.81,0,0,1,.9.24,2,2,0,0,1,1.1,1.34,3.45,3.45,0,0,1,0,1.35c0,.21-.07.42-.11.64l-.09.49A.68.68,0,0,0,14,27l.34-.12a14.61,14.61,0,0,0,2.07-1.08,56.25,56.25,0,0,0,6.47-4.61c.63-.52,1.24-1.05,1.85-1.59l.42-.37a11.93,11.93,0,0,0,2.13-2.4A9.31,9.31,0,0,0,29,11a10,10,0,0,0-.34-2,10.22,10.22,0,0,0-2.56-4.36,13.85,13.85,0,0,0-5-3.31A17.44,17.44,0,0,0,14.49,0h-.61a18.28,18.28,0,0,0-2.52.26A16.71,16.71,0,0,0,7.64,1.37a13.9,13.9,0,0,0-5,3.5,10.64,10.64,0,0,0-2,3.32A9.14,9.14,0,0,0,0,10.9a10,10,0,0,0,.08,1.79A9.32,9.32,0,0,0,.93,15.49ZM20,11.62V8.7a.8.8,0,0,1,.63-.8l.18,0H23.9a.81.81,0,0,1,.75.51.9.9,0,0,1-.2.94.86.86,0,0,1-.61.21h-2c-.21,0-.19,0-.19.18v.93c0,.15,0,.15.16.15h2a1,1,0,0,1,.35,0,.82.82,0,0,1,.54.89.77.77,0,0,1-.75.72c-.46,0-.92,0-1.38,0h-.74c-.13,0-.14,0-.14.13v1c0,.13,0,.13.14.13h2.05a.77.77,0,0,1,.67.34.81.81,0,0,1,.07.86.75.75,0,0,1-.7.46c-.14,0-.28,0-.41,0h-2.6a.86.86,0,0,1-.6-.19.83.83,0,0,1-.28-.65Zm-7.09-2.4V8.69a.78.78,0,0,1,.55-.78.84.84,0,0,1,.95.29l1.11,1.5L17.23,12l.1.12h0V8.69A.75.75,0,0,1,17.83,8a.8.8,0,0,1,.91.12.79.79,0,0,1,.28.62V14.5a.83.83,0,0,1-.16.53.86.86,0,0,1-1.35,0l-.58-.81-2.2-3-.11-.14a.43.43,0,0,0,0,.19v3.17a1,1,0,0,1,0,.36.8.8,0,0,1-.88.55.82.82,0,0,1-.74-.85C12.94,12.74,12.94,11,12.94,9.22Zm-2.68-.94a.84.84,0,0,1,.94-.39.81.81,0,0,1,.62.76v5.79a1.27,1.27,0,0,1,0,.28.79.79,0,0,1-.9.63.78.78,0,0,1-.74-.83V8.71A.8.8,0,0,1,10.26,8.28ZM5,8.25a.85.85,0,0,1,1-.36.79.79,0,0,1,.57.75,1.34,1.34,0,0,1,0,.2v4.7c0,.16,0,.16.15.16H8.74a.79.79,0,0,1,.77.69.82.82,0,0,1-.52.92,1,1,0,0,1-.33,0h-3a.8.8,0,0,1-.81-.56,1.11,1.11,0,0,1,0-.36V8.76A.92.92,0,0,1,5,8.25Z"/></g></g></svg>