<svg xmlns="http://www.w3.org/2000/svg" viewBox="0 0 26.75 26.39"><defs><style>.cls-1{fill:#1f305f;}</style></defs><title>Asset 6</title><g id="Layer_2" data-name="Layer 2"><g id="Layer_1-2" data-name="Layer 1"><path class="cls-1" d="M19.76,5.11a17,17,0,0,0,2.8-1.64,12.9,12.9,0,0,0-7-3.41A16.72,16.72,0,0,1,19.76,5.11Z"/><path class="cls-1" d="M7.54,19.7a16.54,16.54,0,0,1,5.23-1V13.8H6.14A14.52,14.52,0,0,0,7.54,19.7Z"/><path class="cls-1" d="M6.2,12.59h6.57v-5a16.13,16.13,0,0,1-5.17-1A16.33,16.33,0,0,0,6.2,12.59Z"/><path class="cls-1" d="M8.15,5.53a15.08,15.08,0,0,0,4.62.85v-6A16.35,16.35,0,0,0,8.15,5.53Z"/><path class="cls-1" d="M18.67,20.79A14.12,14.12,0,0,0,14,19.88V26A17.44,17.44,0,0,0,18.67,20.79Z"/><path class="cls-1" d="M15.57,26.39a13.68,13.68,0,0,0,7.05-3.53,16,16,0,0,0-2.8-1.58A17,17,0,0,1,15.57,26.39Z"/><path class="cls-1" d="M20.55,13.8H14v4.87a17.59,17.59,0,0,1,5.17,1A13.61,13.61,0,0,0,20.55,13.8Z"/><path class="cls-1" d="M14,.36v6a13.54,13.54,0,0,0,4.63-.85A17.18,17.18,0,0,0,14,.36Z"/><path class="cls-1" d="M11.19,0a13.34,13.34,0,0,0-7,3.47A16.59,16.59,0,0,0,7,5.05,16.61,16.61,0,0,1,11.19,0Z"/><path class="cls-1" d="M12.77,26V19.88a14.06,14.06,0,0,0-4.68.91A18,18,0,0,0,12.77,26Z"/><path class="cls-1" d="M6.93,21.22a26.72,26.72,0,0,0-2.8,1.58,13,13,0,0,0,7.06,3.53A16.33,16.33,0,0,1,6.93,21.22Z"/><path class="cls-1" d="M6.45,6.2A15.71,15.71,0,0,1,3.34,4.38,13.79,13.79,0,0,0,0,12.59H5A18.06,18.06,0,0,1,6.45,6.2Z"/><path class="cls-1" d="M4.93,13.8H0A13.88,13.88,0,0,0,3.28,22a15.93,15.93,0,0,1,3.1-1.82A16.73,16.73,0,0,1,4.93,13.8Z"/><path class="cls-1" d="M19.15,6.63A18.29,18.29,0,0,1,14,7.6v5h6.57A16.33,16.33,0,0,0,19.15,6.63Z"/><path class="cls-1" d="M20.37,20.13A15.64,15.64,0,0,1,23.47,22a13.52,13.52,0,0,0,3.28-8.21H21.83A16.48,16.48,0,0,1,20.37,20.13Z"/><path class="cls-1" d="M20.37,6.2a19.38,19.38,0,0,1,1.46,6.39h4.92a14.11,14.11,0,0,0-3.28-8.21A15.64,15.64,0,0,1,20.37,6.2Z"/></g></g></svg>