<svg xmlns="http://www.w3.org/2000/svg" viewBox="0 0 21.77 21.78"><defs><style>.cls-1{fill:#1f305f;}</style></defs><title>Asset 4</title><g id="Layer_2" data-name="Layer 2"><g id="Layer_1-2" data-name="Layer 1"><path class="cls-1" d="M7.36,17.77c3.31,3.32,6.31,4,8.24,4a7.18,7.18,0,0,0,5.12-2.08l.24-.24c.26-.26.81-.8.81-1a.41.41,0,0,0-.11-.17l-5.19-4.15c-.17.39-.36.95-.48,1.33a5.77,5.77,0,0,1-1,2.14,3.62,3.62,0,0,1-2.6,1.2c-1.61,0-3-1.23-4-2.16L5.07,13.22c-2.5-2.51-2.82-4.73-.94-6.61a5.52,5.52,0,0,1,2.1-1c.38-.13.95-.32,1.34-.5L3.75.16A.54.54,0,0,0,3.37,0C3.11,0,2.7.17,2.06.81-.83,3.7-1.1,9.3,4,14.39Z"/></g></g></svg>