<svg xmlns="http://www.w3.org/2000/svg" viewBox="0 0 24.93 25.53"><defs><style>.cls-1{fill:#1f305f;}</style></defs><title>Asset 8</title><g id="Layer_2" data-name="Layer 2"><g id="Layer_1-2" data-name="Layer 1"><path class="cls-1" d="M24.91,24l-1.22-6.78a1.28,1.28,0,0,0-1.26-1.05h-6L12.9,20.93a.86.86,0,0,1-.13.14.63.63,0,0,1-.89-.14L8.32,16.18H2.5a1.28,1.28,0,0,0-1.26,1.05L0,24a1.94,1.94,0,0,0,0,.24,1.28,1.28,0,0,0,1.28,1.28H23.66a1.29,1.29,0,0,0,1-.47h0A1.28,1.28,0,0,0,24.91,24Z"/><path class="cls-1" d="M14.72,6.58a2.26,2.26,0,1,0-2.25,2.23A2.26,2.26,0,0,0,14.72,6.58Z"/><path class="cls-1" d="M18,11.91a7.56,7.56,0,0,0,1.55-5A7.35,7.35,0,0,0,12.39,0,7.37,7.37,0,0,0,5.18,6.94a7.56,7.56,0,0,0,1.54,5l5.67,7.57ZM8.94,6.58a3.53,3.53,0,1,1,3.53,3.51A3.53,3.53,0,0,1,8.94,6.58Z"/></g></g></svg>