<svg xmlns="http://www.w3.org/2000/svg" viewBox="0 0 41.07 20.81"><defs><style>.cls-1{fill:#1f305f;}</style></defs><title>Asset 7</title><g id="Layer_2" data-name="Layer 2"><g id="Layer_1-2" data-name="Layer 1"><path class="cls-1" d="M36.94,1.51H16.38a2.62,2.62,0,0,0-2.62,2.62V16.69a2.63,2.63,0,0,0,2.62,2.62H36.94a2.62,2.62,0,0,0,2.62-2.62V4.13A2.62,2.62,0,0,0,36.94,1.51Zm0,15.18a.67.67,0,0,1-.56.25.7.7,0,0,1-.49-.19L29.36,10.9l-2.22,1.74a.66.66,0,0,1-.44.17.67.67,0,0,1-.45-.19L24.13,11l-6.66,5.77a.69.69,0,0,1-.48.18.68.68,0,0,1-.57-.26.75.75,0,0,1,.08-1L22.88,10,16.55,5.11A.73.73,0,1,1,17.46,4l9.24,7.16,9.2-7.2a.75.75,0,0,1,.54-.15.73.73,0,0,1,.5.27.72.72,0,0,1,.14.54.76.76,0,0,1-.26.49L30.57,10l6.34,5.67A.76.76,0,0,1,37,16.69Z"/><path class="cls-1" d="M9.89,13.72h-4a.73.73,0,1,0,0,1.46h4a.71.71,0,0,0,.73-.73.76.76,0,0,0-.27-.58A.57.57,0,0,0,9.89,13.72Z"/><path class="cls-1" d="M10.58,6.36a.72.72,0,0,0-.73-.73H.73A.72.72,0,0,0,0,6.36a.73.73,0,0,0,.26.57.69.69,0,0,0,.43.17H9.85A.72.72,0,0,0,10.58,6.36Z"/><path class="cls-1" d="M9.89,9.68H3.83a.73.73,0,0,0,0,1.46H9.89a.72.72,0,0,0,.73-.73A.74.74,0,0,0,9.89,9.68Z"/><path class="cls-1" d="M36.94,0H16.38a4.13,4.13,0,0,0-4.12,4.13V16.69a4.18,4.18,0,0,0,4.12,4.12H36.94a4.13,4.13,0,0,0,4.13-4.12V4.13A4.13,4.13,0,0,0,36.94,0Zm2.62,16.69a2.62,2.62,0,0,1-2.62,2.62H16.38a2.63,2.63,0,0,1-2.62-2.62V4.13a2.62,2.62,0,0,1,2.62-2.62H36.94a2.62,2.62,0,0,1,2.62,2.62Z"/></g></g></svg>