<svg xmlns="http://www.w3.org/2000/svg" viewBox="0 0 100 83.65"><defs><style>.cls-1{fill:#fff;}.cls-2{fill:#1f305f;}</style></defs><title>Asset 3</title><g id="Layer_2" data-name="Layer 2"><g id="Layer_1-2" data-name="Layer 1"><rect class="cls-1" x="5" y="33" width="21" height="21"/><rect class="cls-1" x="73" y="35" width="21" height="21"/><path class="cls-2" d="M90.93,28.7,82.73,7.53C81.2,3.48,77.85,0,71.51,0H28.43c-6.31,0-9.66,3.48-11.22,7.53L9,28.7c-3.26.42-9,4.24-9,11.49v27H8v8.6c0,10.61,15,10.48,15,0v-8.6H77v8.6c0,10.48,15,10.61,15,0v-8.6h8V40.19C100,32.94,94.21,29.12,90.93,28.7ZM15.73,50.87a7.12,7.12,0,1,1,6.92-7.12A7,7,0,0,1,15.73,50.87ZM50,28.5H17.54l6.18-16.67c.75-2.37,1.91-4.06,4.64-4.1H71.64c2.69,0,3.85,1.73,4.64,4.1L82.46,28.5ZM84.27,50.87a7.12,7.12,0,1,1,6.93-7.12A7,7,0,0,1,84.27,50.87Z"/></g></g></svg>