<svg xmlns="http://www.w3.org/2000/svg" xmlns:xlink="http://www.w3.org/1999/xlink" viewBox="0 0 128.19 96.5"><defs><style>.cls-1{fill:url(#linear-gradient);}.cls-2{fill:url(#linear-gradient-2);}.cls-3{fill:url(#linear-gradient-3);}.cls-4{fill:url(#linear-gradient-4);}.cls-5{fill:url(#linear-gradient-5);}</style><linearGradient id="linear-gradient" x1="64.41" y1="0.04" x2="64.41" y2="55.96" gradientTransform="translate(-0.32 -0.04)" gradientUnits="userSpaceOnUse"><stop offset="0.01" stop-color="#1f305f"/><stop offset="0.52" stop-color="#1f4474"/><stop offset="0.62" stop-color="#1f4979"/><stop offset="0.73" stop-color="#224f81"/><stop offset="0.91" stop-color="#2a5e96"/><stop offset="1" stop-color="#3068a4"/></linearGradient><linearGradient id="linear-gradient-2" x1="13.05" y1="96.85" x2="13.05" y2="62.68" gradientTransform="translate(0.32 -0.41) rotate(0.37)" gradientUnits="userSpaceOnUse"><stop offset="0" stop-color="#404041"/><stop offset="0.34" stop-color="#414244"/><stop offset="0.58" stop-color="#45484d"/><stop offset="0.78" stop-color="#4c535c"/><stop offset="0.97" stop-color="#556272"/><stop offset="1" stop-color="#576576"/></linearGradient><linearGradient id="linear-gradient-3" x1="77.67" y1="96.41" x2="77.67" y2="62.26" xlink:href="#linear-gradient-2"/><linearGradient id="linear-gradient-4" x1="113.7" y1="96.28" x2="113.7" y2="62.03" xlink:href="#linear-gradient-2"/><linearGradient id="linear-gradient-5" x1="43.82" y1="96.54" x2="43.82" y2="62.47" gradientTransform="translate(-0.32 -0.04)" xlink:href="#linear-gradient-2"/></defs><title>Ryutech</title><g id="Layer_2" data-name="Layer 2"><g id="Layer_1-2" data-name="Layer 1"><path class="cls-1" d="M117.18,0V33.47a10.86,10.86,0,0,1-3.5,8.26Q110.18,45,103.51,45H94.4q-6.66,0-10.22-3.29a10.79,10.79,0,0,1-3.54-8.26V0H67.13L52.92,20.72,46.83,0H15.15Q6.89,0,3.44,3.92T0,16.31V55.92H11.23V18q0-7.2,7.2-7.21H37.72l7.79,20.1-18,25H40.4L69.3,15.28V33.89a24.64,24.64,0,0,0,1.54,8.9,18.42,18.42,0,0,0,4.61,6.94A21.47,21.47,0,0,0,83,54.28a30.57,30.57,0,0,0,10.54,1.65h10.38a30.65,30.65,0,0,0,10.54-1.65,21.56,21.56,0,0,0,7.57-4.55,18.53,18.53,0,0,0,4.61-6.94,24.85,24.85,0,0,0,1.53-8.9V0Z"/><path class="cls-2" d="M25.89,62.43v6H16V96.5h-6V68.39H0v-6Z"/><path class="cls-3" d="M91.7,62.43v6H78.53c-3.3,0-5.69.86-7.19,2.6s-2.25,4.57-2.25,8.5.74,6.72,2.22,8.45,3.89,2.6,7.22,2.6H91.7v6H78.53q-7.47,0-11.43-4.21t-4-12.8q0-8.62,4-12.84t11.43-4.22Z"/><path class="cls-4" d="M104.77,62.43V76.31h17.42V62.43h6V96.5h-6V82.27H104.77V96.5h-6V62.43Z"/><path class="cls-5" d="M44.61,68.39H57.79v-6H44.61q-7.45,0-11.43,4.22t-4,12.84q0,8.58,4,12.8T44.61,96.5H57.79v-6H44.61c-3.33,0-5.73-.86-7.21-2.6a10.14,10.14,0,0,1-2-5.5H57.79v-6H35.36A10.14,10.14,0,0,1,37.42,71C38.92,69.25,41.32,68.39,44.61,68.39Z"/></g></g></svg>