<svg xmlns="http://www.w3.org/2000/svg" viewBox="0 0 871 257.87"><defs><style>.cls-1{fill:#3068a4;}.cls-2{fill:none;stroke:#fff;stroke-linecap:round;stroke-linejoin:round;stroke-width:5px;}.cls-2,.cls-3{opacity:0.85;}.cls-4{fill:#fff;}.cls-5,.cls-6{font-size:32px;fill:#404041;}.cls-5,.cls-6,.cls-8{font-family:DBHelvethaicaX-87BlkCond, DB Helvethaica X;}.cls-5,.cls-7{letter-spacing:0.03em;}.cls-6{letter-spacing:0em;}.cls-8{font-size:65px;fill:#1f4979;letter-spacing:0.03em;}</style></defs><title>Asset 5</title><g id="Layer_2" data-name="Layer 2"><g id="Layer_1-2" data-name="Layer 1"><path class="cls-1" d="M99.78,28A71.79,71.79,0,1,1,28,99.78,71.87,71.87,0,0,1,99.78,28m0-28a99.79,99.79,0,1,0,99.79,99.78A99.78,99.78,0,0,0,99.78,0Z"/><path class="cls-1" d="M323.5,28a71.79,71.79,0,1,1-71.79,71.78A71.86,71.86,0,0,1,323.5,28m0-28a99.79,99.79,0,1,0,99.78,99.78A99.78,99.78,0,0,0,323.5,0Z"/><path class="cls-1" d="M547.31,28a71.79,71.79,0,1,1-71.78,71.78A71.86,71.86,0,0,1,547.31,28m0-28a99.79,99.79,0,1,0,99.78,99.78A99.78,99.78,0,0,0,547.31,0Z"/><path class="cls-1" d="M771.22,28a71.79,71.79,0,1,1-71.79,71.78A71.86,71.86,0,0,1,771.22,28m0-28A99.79,99.79,0,1,0,871,99.78,99.78,99.78,0,0,0,771.22,0Z"/><path class="cls-2" d="M165.74,154.81A85.78,85.78,0,1,1,99.93,14"/><path class="cls-2" d="M410.07,99.78A86.79,86.79,0,1,1,323.28,13"/><path class="cls-2" d="M594.85,27.19A86.79,86.79,0,1,1,547.28,13"/><g class="cls-3"><path class="cls-4" d="M771.28,16A83.79,83.79,0,1,1,687.5,99.78,83.88,83.88,0,0,1,771.28,16m0-5a88.79,88.79,0,1,0,88.79,88.78A88.78,88.78,0,0,0,771.28,11Z"/></g><text class="cls-5" transform="translate(256.05 246.54)">AUTOMOTIVE</text><text class="cls-5" transform="translate(438.45 246.03)">EMBEDDED SYSTEMS</text><text class="cls-5" transform="translate(38.71 246.53)">MECHANICS</text><text class="cls-6" transform="translate(725.49 246.03)">P<tspan class="cls-7" x="12.67" y="0">ASSION</tspan></text><text class="cls-8" transform="translate(714.66 116.8)">100%</text><text class="cls-8" transform="translate(504.34 116.8)">95%</text><text class="cls-8" transform="translate(55.34 116.8)">65%</text><text class="cls-8" transform="translate(281.02 116.8)">75%</text></g></g></svg>