<svg xmlns="http://www.w3.org/2000/svg" viewBox="0 0 871 246.92"><defs><style>.cls-1{fill:#3068a4;}.cls-2{fill:none;stroke:#fff;stroke-linecap:round;stroke-linejoin:round;stroke-width:5px;}.cls-2,.cls-3{opacity:0.85;}.cls-4{fill:#fff;}.cls-5{fill:#404041;}.cls-6{fill:#1f4979;}</style></defs><title>Asset 1</title><g id="Layer_2" data-name="Layer 2"><g id="Layer_1-2" data-name="Layer 1"><path class="cls-1" d="M99.78,28A71.79,71.79,0,1,1,28,99.78,71.87,71.87,0,0,1,99.78,28m0-28a99.79,99.79,0,1,0,99.79,99.78A99.78,99.78,0,0,0,99.78,0Z"/><path class="cls-1" d="M323.5,28a71.79,71.79,0,1,1-71.79,71.78A71.86,71.86,0,0,1,323.5,28m0-28a99.79,99.79,0,1,0,99.78,99.78A99.78,99.78,0,0,0,323.5,0Z"/><path class="cls-1" d="M547.31,28a71.79,71.79,0,1,1-71.78,71.78A71.86,71.86,0,0,1,547.31,28m0-28a99.79,99.79,0,1,0,99.78,99.78A99.78,99.78,0,0,0,547.31,0Z"/><path class="cls-1" d="M771.22,28a71.79,71.79,0,1,1-71.79,71.78A71.86,71.86,0,0,1,771.22,28m0-28A99.79,99.79,0,1,0,871,99.78,99.78,99.78,0,0,0,771.22,0Z"/><path class="cls-2" d="M165.74,154.81A85.78,85.78,0,1,1,99.93,14"/><path class="cls-2" d="M410.07,99.78A86.79,86.79,0,1,1,323.28,13"/><path class="cls-2" d="M594.85,27.19A86.79,86.79,0,1,1,547.28,13"/><g class="cls-3"><path class="cls-4" d="M771.28,16A83.79,83.79,0,1,1,687.5,99.78,83.88,83.88,0,0,1,771.28,16m0-5a88.79,88.79,0,1,0,88.79,88.78A88.78,88.78,0,0,0,771.28,11Z"/></g><path class="cls-5" d="M264.85,242.19H261l-1.21,4.35H256l5-16.32H265l5,16.32h-3.84Zm-3.1-2.66h2.33l-1.14-4.2Z"/><path class="cls-5" d="M271.89,230.22h3.58v11.65a3.55,3.55,0,0,0,.08.73,1.41,1.41,0,0,0,.32.66,1.6,1.6,0,0,0,.7.47,3.5,3.5,0,0,0,1.24.18,3.56,3.56,0,0,0,1.25-.18,1.74,1.74,0,0,0,.72-.47,1.42,1.42,0,0,0,.33-.66,3.54,3.54,0,0,0,.07-.73V230.22h3.55V242a4.65,4.65,0,0,1-.45,2.11,4.11,4.11,0,0,1-1.25,1.49,5.55,5.55,0,0,1-1.88.89,9.92,9.92,0,0,1-4.68,0,5.35,5.35,0,0,1-1.88-.88,4.08,4.08,0,0,1-1.25-1.48,4.71,4.71,0,0,1-.45-2.13Z"/><path class="cls-5" d="M286,230.22h11v2.88h-3.68v13.44h-3.61V233.1H286Z"/><path class="cls-5" d="M298.86,238.06c0-.67,0-1.33.08-2a11.42,11.42,0,0,1,.3-1.9,7.16,7.16,0,0,1,.66-1.69,4.43,4.43,0,0,1,1.13-1.35,5.13,5.13,0,0,1,1.74-.91,8.49,8.49,0,0,1,2.46-.32,7.64,7.64,0,0,1,2.39.32,5,5,0,0,1,1.7.89,4.48,4.48,0,0,1,1.12,1.34,7.23,7.23,0,0,1,.65,1.68,10.73,10.73,0,0,1,.31,1.91c.05.67.07,1.34.07,2s0,1.57-.08,2.32a12.45,12.45,0,0,1-.31,2.11,7.12,7.12,0,0,1-.66,1.8,4.5,4.5,0,0,1-1.13,1.4,5.16,5.16,0,0,1-1.71.91,9.27,9.27,0,0,1-4.83,0,4.93,4.93,0,0,1-1.72-.9,4.46,4.46,0,0,1-1.12-1.39,7.12,7.12,0,0,1-.66-1.8,12.3,12.3,0,0,1-.31-2.11C298.89,239.65,298.86,238.87,298.86,238.06Zm9,0c0-.78,0-1.5-.09-2.15a5.85,5.85,0,0,0-.4-1.67,2.49,2.49,0,0,0-.85-1.08,2.42,2.42,0,0,0-1.41-.38,2.29,2.29,0,0,0-1.37.38,2.53,2.53,0,0,0-.83,1.08,5.85,5.85,0,0,0-.4,1.67,18.06,18.06,0,0,0-.09,2.15c0,1,0,1.91.1,2.65a6.44,6.44,0,0,0,.38,1.84,2.21,2.21,0,0,0,.83,1.08,2.54,2.54,0,0,0,1.41.35,2.64,2.64,0,0,0,1.44-.35,2.2,2.2,0,0,0,.82-1.08,6.47,6.47,0,0,0,.37-1.84C307.86,240,307.89,239.12,307.89,238.09Z"/><path class="cls-5" d="M314.19,230.22h5.51l2.49,10.36,2.5-10.36h5.5v16.32H326.6V234.22l-3.13,12.32h-2.56l-3.13-12.45v12.45h-3.59Z"/><path class="cls-5" d="M332.91,238.06c0-.67,0-1.33.07-2a10.47,10.47,0,0,1,.31-1.9,7.14,7.14,0,0,1,.65-1.69,4.46,4.46,0,0,1,1.14-1.35,5.17,5.17,0,0,1,1.73-.91,8.51,8.51,0,0,1,2.47-.32,7.73,7.73,0,0,1,2.39.32,5,5,0,0,1,1.7.89,4.63,4.63,0,0,1,1.12,1.34,7.23,7.23,0,0,1,.65,1.68,11.71,11.71,0,0,1,.3,1.91c.05.67.08,1.34.08,2s0,1.57-.08,2.32a13.55,13.55,0,0,1-.31,2.11,8,8,0,0,1-.66,1.8,4.65,4.65,0,0,1-1.13,1.4,5.12,5.12,0,0,1-1.72.91,8.09,8.09,0,0,1-2.41.32,8.25,8.25,0,0,1-2.42-.32,4.8,4.8,0,0,1-1.71-.9,4.49,4.49,0,0,1-1.13-1.39,8,8,0,0,1-.66-1.8,12.3,12.3,0,0,1-.31-2.11C332.93,239.65,332.91,238.87,332.91,238.06Zm9,0a18.06,18.06,0,0,0-.09-2.15,5.53,5.53,0,0,0-.4-1.67,2.55,2.55,0,0,0-.84-1.08,2.46,2.46,0,0,0-1.42-.38,2.31,2.31,0,0,0-1.37.38,2.51,2.51,0,0,0-.82,1.08,5.84,5.84,0,0,0-.41,1.67,18.06,18.06,0,0,0-.09,2.15c0,1,0,1.91.1,2.65a6.77,6.77,0,0,0,.39,1.84,2.2,2.2,0,0,0,.82,1.08,2.58,2.58,0,0,0,1.41.35,2.64,2.64,0,0,0,1.44-.35,2.14,2.14,0,0,0,.82-1.08,6.12,6.12,0,0,0,.38-1.84C341.9,240,341.93,239.12,341.93,238.09Z"/><path class="cls-5" d="M347.44,230.22h11v2.88h-3.68v13.44h-3.62V233.1h-3.71Z"/><path class="cls-5" d="M360.81,246.54V230.22h3.61v16.32Z"/><path class="cls-5" d="M370.37,230.22,373,241l2.62-10.81h3.84l-4.57,16.32h-3.71l-4.55-16.32Z"/><path class="cls-5" d="M381.41,246.54V230.22h9.83v2.88H385v3.55h5.85v2.88H385v4.16h6.27v2.85Z"/><path class="cls-5" d="M439.47,246V229.71h9.83v2.89h-6.24v3.54h5.85V239h-5.85v4.15h6.27V246Z"/><path class="cls-5" d="M452,229.71h5.5l2.5,10.37,2.5-10.37H468V246h-3.59V233.71L461.24,246h-2.57l-3.13-12.44V246H452Z"/><path class="cls-5" d="M471,246V229.71h5.67a7.11,7.11,0,0,1,2.21.28,4.35,4.35,0,0,1,1.59.87,3.74,3.74,0,0,1,1,1.36,4.7,4.7,0,0,1,.32,1.75,8.45,8.45,0,0,1-.06,1,3.71,3.71,0,0,1-.23.9,2.6,2.6,0,0,1-.45.77,2.81,2.81,0,0,1-.73.62,3.37,3.37,0,0,1,.84.65,4,4,0,0,1,.59.87,4.72,4.72,0,0,1,.35,1,5.38,5.38,0,0,1,.12,1.14,6.1,6.1,0,0,1-.39,2.27,3.93,3.93,0,0,1-1.15,1.61,4.78,4.78,0,0,1-1.87.94,8,8,0,0,1-2.52.23Zm3.59-10h.93a8.34,8.34,0,0,0,1.21-.08,2.2,2.2,0,0,0,.82-.27,1.17,1.17,0,0,0,.48-.55,2.28,2.28,0,0,0,.15-.9,2.78,2.78,0,0,0-.09-.76.9.9,0,0,0-.37-.51,1.92,1.92,0,0,0-.81-.27,8.51,8.51,0,0,0-1.42-.05h-.9Zm1.79,7.19a4.27,4.27,0,0,0,1-.11,1.63,1.63,0,0,0,.68-.36,1.41,1.41,0,0,0,.39-.63,2.88,2.88,0,0,0,.13-.94,2.46,2.46,0,0,0-.22-1.17,1.34,1.34,0,0,0-.6-.6,2.37,2.37,0,0,0-.88-.22c-.34,0-.7,0-1.09,0h-1.21v4.06Z"/><path class="cls-5" d="M484.66,246V229.71h9.82v2.89h-6.24v3.54h5.85V239h-5.85v4.15h6.28V246Z"/><path class="cls-5" d="M497.14,246V229.71h5.51a8.49,8.49,0,0,1,2.46.32,5.39,5.39,0,0,1,1.78.88,4.43,4.43,0,0,1,1.2,1.32,7.16,7.16,0,0,1,.73,1.67,10.31,10.31,0,0,1,.35,1.9q.09,1,.09,2a16.48,16.48,0,0,1-.12,2,9.81,9.81,0,0,1-.41,1.91,7.67,7.67,0,0,1-.76,1.7,5.48,5.48,0,0,1-1.18,1.36,5.22,5.22,0,0,1-1.66.91,7,7,0,0,1-2.2.32Zm3.59-2.85h1.78a3.36,3.36,0,0,0,1.49-.29,2.24,2.24,0,0,0,1-.95,5.1,5.1,0,0,0,.54-1.74,17.69,17.69,0,0,0,.17-2.64q0-.57,0-1.14a8,8,0,0,0-.11-1.12,4.74,4.74,0,0,0-.3-1,2.5,2.5,0,0,0-.55-.84,2.67,2.67,0,0,0-.88-.59,3.56,3.56,0,0,0-1.31-.24h-1.78Z"/><path class="cls-5" d="M512.05,246V229.71h5.51A8.61,8.61,0,0,1,520,230a5.59,5.59,0,0,1,1.78.88,4.71,4.71,0,0,1,1.2,1.32,7.59,7.59,0,0,1,.72,1.67,10.31,10.31,0,0,1,.35,1.9,19.63,19.63,0,0,1,.1,2,16.48,16.48,0,0,1-.12,2,10.61,10.61,0,0,1-.41,1.91,8.18,8.18,0,0,1-.77,1.7,5.48,5.48,0,0,1-1.18,1.36,5.22,5.22,0,0,1-1.66.91,7,7,0,0,1-2.2.32Zm3.59-2.85h1.79a3.34,3.34,0,0,0,1.48-.29,2.24,2.24,0,0,0,1-.95,5.1,5.1,0,0,0,.54-1.74,17.69,17.69,0,0,0,.17-2.64c0-.38,0-.76,0-1.14a9.85,9.85,0,0,0-.12-1.12,4.73,4.73,0,0,0-.29-1,2.57,2.57,0,0,0-1.44-1.43,3.55,3.55,0,0,0-1.3-.24h-1.79Z"/><path class="cls-5" d="M527,246V229.71h9.82v2.89h-6.24v3.54h5.85V239h-5.85v4.15h6.28V246Z"/><path class="cls-5" d="M539.45,246V229.71H545a8.49,8.49,0,0,1,2.46.32,5.39,5.39,0,0,1,1.78.88,4.56,4.56,0,0,1,1.2,1.32,6.74,6.74,0,0,1,.72,1.67,9.54,9.54,0,0,1,.36,1.9q.09,1,.09,2a16.48,16.48,0,0,1-.12,2,9.81,9.81,0,0,1-.41,1.91,8.15,8.15,0,0,1-.76,1.7,5.48,5.48,0,0,1-1.18,1.36,5.22,5.22,0,0,1-1.66.91,7,7,0,0,1-2.2.32Zm3.59-2.85h1.78a3.28,3.28,0,0,0,1.48-.29,2.21,2.21,0,0,0,1-.95,5.1,5.1,0,0,0,.54-1.74,17.69,17.69,0,0,0,.17-2.64q0-.57,0-1.14a8,8,0,0,0-.11-1.12,4.74,4.74,0,0,0-.3-1,2.5,2.5,0,0,0-.55-.84,2.61,2.61,0,0,0-.89-.59,3.51,3.51,0,0,0-1.3-.24H543Z"/><path class="cls-5" d="M568.25,234.77a4.63,4.63,0,0,0,0-1.06,1.6,1.6,0,0,0-.32-.75,1.38,1.38,0,0,0-.69-.46,3.26,3.26,0,0,0-1.13-.16,2.5,2.5,0,0,0-.88.14,1.31,1.31,0,0,0-.55.39,1.5,1.5,0,0,0-.3.59,2.75,2.75,0,0,0-.09.73,1.69,1.69,0,0,0,.1.56,1.64,1.64,0,0,0,.27.46,1.57,1.57,0,0,0,.4.37,2.49,2.49,0,0,0,.51.27l2.31.9a14.16,14.16,0,0,1,2,.94,6.39,6.39,0,0,1,1.37,1,3.58,3.58,0,0,1,.8,1.18,3.37,3.37,0,0,1,.26,1.36,5.5,5.5,0,0,1-.41,2.24,4.16,4.16,0,0,1-1.18,1.58,4.83,4.83,0,0,1-1.82.93,8.86,8.86,0,0,1-2.38.3,9.07,9.07,0,0,1-2.63-.34,4.85,4.85,0,0,1-1.9-1.08,4.44,4.44,0,0,1-1.12-1.87,8,8,0,0,1-.3-2.72h3.55a6.13,6.13,0,0,0,.09,1.43,2.19,2.19,0,0,0,.4.94,1.56,1.56,0,0,0,.76.51,3.84,3.84,0,0,0,2,.06,2.06,2.06,0,0,0,.7-.33,1.59,1.59,0,0,0,.5-.56,1.8,1.8,0,0,0,.19-.84,2.58,2.58,0,0,0-.14-.9,1.75,1.75,0,0,0-.38-.62,2.24,2.24,0,0,0-.6-.43c-.23-.12-.49-.23-.77-.35l-3.49-1.38a3.74,3.74,0,0,1-2.59-3.74,4.45,4.45,0,0,1,.44-2,4.34,4.34,0,0,1,1.18-1.47,5.3,5.3,0,0,1,1.74-.89,7.34,7.34,0,0,1,2.12-.3,7.46,7.46,0,0,1,2.31.34,4.79,4.79,0,0,1,1.8,1,4.2,4.2,0,0,1,1.13,1.67,5.83,5.83,0,0,1,.32,2.37Z"/><path class="cls-5" d="M583.35,229.71h3.88l-5,10V246h-3.59v-6.3l-5-10h3.87l2.88,6.46Z"/><path class="cls-5" d="M596.41,234.77a4.12,4.12,0,0,0,0-1.06,1.51,1.51,0,0,0-.32-.75,1.38,1.38,0,0,0-.69-.46,3.24,3.24,0,0,0-1.12-.16,2.42,2.42,0,0,0-.88.14,1.35,1.35,0,0,0-.56.39,1.5,1.5,0,0,0-.3.59,2.77,2.77,0,0,0-.08.73,1.69,1.69,0,0,0,.09.56,1.92,1.92,0,0,0,.27.46,1.57,1.57,0,0,0,.4.37,2.33,2.33,0,0,0,.52.27l2.3.9a13.15,13.15,0,0,1,2,.94,6.15,6.15,0,0,1,1.37,1,3.58,3.58,0,0,1,.8,1.18,3.37,3.37,0,0,1,.27,1.36,5.49,5.49,0,0,1-.42,2.24,4.24,4.24,0,0,1-1.17,1.58A5,5,0,0,1,597,246a8.81,8.81,0,0,1-2.38.3A9.07,9.07,0,0,1,592,246a4.85,4.85,0,0,1-1.9-1.08A4.54,4.54,0,0,1,589,243a8,8,0,0,1-.3-2.72h3.55a6.73,6.73,0,0,0,.09,1.43,2.2,2.2,0,0,0,.41.94,1.53,1.53,0,0,0,.75.51,3.8,3.8,0,0,0,1.15.16,3.75,3.75,0,0,0,.82-.1,2.2,2.2,0,0,0,.71-.33,1.57,1.57,0,0,0,.49-.56,1.68,1.68,0,0,0,.19-.84,2.58,2.58,0,0,0-.14-.9,1.75,1.75,0,0,0-.38-.62,2.19,2.19,0,0,0-.59-.43c-.24-.12-.5-.23-.78-.35l-3.49-1.38a3.74,3.74,0,0,1-2.59-3.74,4.58,4.58,0,0,1,.44-2,4.34,4.34,0,0,1,1.18-1.47,5.3,5.3,0,0,1,1.74-.89,7.83,7.83,0,0,1,4.43,0,4.79,4.79,0,0,1,1.8,1,4.1,4.1,0,0,1,1.13,1.67,5.66,5.66,0,0,1,.32,2.37Z"/><path class="cls-5" d="M602.11,229.71h11v2.89h-3.68V246h-3.62V232.6h-3.71Z"/><path class="cls-5" d="M615.29,246V229.71h9.83v2.89h-6.25v3.54h5.86V239h-5.86v4.15h6.28V246Z"/><path class="cls-5" d="M627.77,229.71h5.51l2.49,10.37,2.5-10.37h5.5V246h-3.58V233.71L637.05,246h-2.56l-3.13-12.44V246h-3.59Z"/><path class="cls-5" d="M654,234.77a4.63,4.63,0,0,0,0-1.06,1.6,1.6,0,0,0-.32-.75,1.38,1.38,0,0,0-.69-.46,3.26,3.26,0,0,0-1.13-.16,2.4,2.4,0,0,0-.87.14,1.29,1.29,0,0,0-.56.39,1.5,1.5,0,0,0-.3.59,2.75,2.75,0,0,0-.09.73,1.69,1.69,0,0,0,.1.56,1.64,1.64,0,0,0,.27.46,1.57,1.57,0,0,0,.4.37,2.33,2.33,0,0,0,.52.27l2.3.9a13.15,13.15,0,0,1,2,.94,6.15,6.15,0,0,1,1.37,1,3.58,3.58,0,0,1,.8,1.18,3.37,3.37,0,0,1,.26,1.36,5.5,5.5,0,0,1-.41,2.24,4.16,4.16,0,0,1-1.18,1.58,4.83,4.83,0,0,1-1.82.93,8.81,8.81,0,0,1-2.38.3,9.07,9.07,0,0,1-2.63-.34,4.85,4.85,0,0,1-1.9-1.08A4.44,4.44,0,0,1,646.6,243a8,8,0,0,1-.3-2.72h3.55a6.13,6.13,0,0,0,.09,1.43,2.19,2.19,0,0,0,.4.94,1.61,1.61,0,0,0,.76.51,3.84,3.84,0,0,0,2,.06,2.06,2.06,0,0,0,.7-.33,1.5,1.5,0,0,0,.5-.56,1.68,1.68,0,0,0,.19-.84,2.58,2.58,0,0,0-.14-.9,1.75,1.75,0,0,0-.38-.62,2.24,2.24,0,0,0-.6-.43c-.23-.12-.49-.23-.77-.35l-3.49-1.38a3.74,3.74,0,0,1-2.59-3.74,4.45,4.45,0,0,1,.44-2,4.34,4.34,0,0,1,1.18-1.47,5.3,5.3,0,0,1,1.74-.89,7.83,7.83,0,0,1,4.43,0,4.79,4.79,0,0,1,1.8,1,4.2,4.2,0,0,1,1.13,1.67,5.66,5.66,0,0,1,.32,2.37Z"/><path class="cls-5" d="M39.74,230.21h5.51l2.49,10.37,2.5-10.37h5.5v16.32H52.15V234.21L49,246.53H46.46l-3.14-12.44v12.44H39.74Z"/><path class="cls-5" d="M58.78,246.53V230.21H68.6v2.88H62.36v3.55h5.85v2.88H62.36v4.16h6.27v2.85Z"/><path class="cls-5" d="M78.88,235.84a6.65,6.65,0,0,0-.13-1.24,2.74,2.74,0,0,0-.34-.94,1.66,1.66,0,0,0-.65-.61,2.13,2.13,0,0,0-1-.21,1.86,1.86,0,0,0-1,.26,2.34,2.34,0,0,0-.7.7,3.69,3.69,0,0,0-.42,1,9,9,0,0,0-.22,1.15,11.52,11.52,0,0,0-.09,1.17c0,.39,0,.73,0,1s0,.75,0,1.17,0,.84.07,1.26a9,9,0,0,0,.21,1.21,3.55,3.55,0,0,0,.43,1,2.1,2.1,0,0,0,.7.72,1.91,1.91,0,0,0,1,.27,1.78,1.78,0,0,0,1.09-.31,2,2,0,0,0,.66-.84,4.55,4.55,0,0,0,.31-1.27,13.32,13.32,0,0,0,0-1.58h3.58a10.64,10.64,0,0,1-.09,1.8,8,8,0,0,1-.41,1.65,6.38,6.38,0,0,1-.74,1.42,5.26,5.26,0,0,1-1.09,1.12,5,5,0,0,1-1.42.73,5.91,5.91,0,0,1-1.79.26,7,7,0,0,1-2.43-.37,5,5,0,0,1-1.71-1,5.15,5.15,0,0,1-1.1-1.48,8.32,8.32,0,0,1-.62-1.8,12.76,12.76,0,0,1-.28-2c0-.67-.07-1.33-.07-2,0-.46,0-.93.05-1.41s.1-1,.18-1.44a10.87,10.87,0,0,1,.35-1.39,7.08,7.08,0,0,1,.56-1.29,6.26,6.26,0,0,1,.8-1.11,5.21,5.21,0,0,1,1.09-.87,5.62,5.62,0,0,1,1.41-.57,6.93,6.93,0,0,1,1.77-.21,5.67,5.67,0,0,1,2.35.47A5.17,5.17,0,0,1,81,231.63a5.54,5.54,0,0,1,1.09,1.89,6.83,6.83,0,0,1,.33,2.32Z"/><path class="cls-5" d="M85,246.53V230.21h3.59v6.21H93.4v-6.21H97v16.32H93.4v-7.2H88.54v7.2Z"/><path class="cls-5" d="M107.76,242.18h-3.83l-1.22,4.35h-3.8l5-16.32h3.94l5,16.32H109Zm-3.1-2.66H107l-1.15-4.19Z"/><path class="cls-5" d="M119,230.21l4.19,10.5v-10.5h3.58v16.32h-4.29l-4.15-10.3v10.3h-3.59V230.21Z"/><path class="cls-5" d="M130,246.53V230.21h3.61v16.32Z"/><path class="cls-5" d="M144.46,235.84a7.67,7.67,0,0,0-.12-1.24,2.74,2.74,0,0,0-.34-.94,1.73,1.73,0,0,0-.65-.61,2.13,2.13,0,0,0-1-.21,1.86,1.86,0,0,0-1,.26,2.34,2.34,0,0,0-.7.7,3.69,3.69,0,0,0-.42,1,9,9,0,0,0-.23,1.15,11.5,11.5,0,0,0-.08,1.17c0,.39,0,.73,0,1v1.17c0,.42,0,.84.08,1.26a7.63,7.63,0,0,0,.21,1.21,3.55,3.55,0,0,0,.43,1,2.16,2.16,0,0,0,.69.72,2,2,0,0,0,1.06.27,1.78,1.78,0,0,0,1.09-.31,2,2,0,0,0,.66-.84,4.55,4.55,0,0,0,.3-1.27,11.49,11.49,0,0,0,.05-1.58h3.59a10.64,10.64,0,0,1-.09,1.8,8.66,8.66,0,0,1-.41,1.65,6,6,0,0,1-.75,1.42,4.82,4.82,0,0,1-2.5,1.85,5.91,5.91,0,0,1-1.79.26,7.08,7.08,0,0,1-2.44-.37,5,5,0,0,1-1.7-1,5.15,5.15,0,0,1-1.1-1.48,8.32,8.32,0,0,1-.62-1.8,11.66,11.66,0,0,1-.28-2c-.05-.67-.07-1.33-.07-2,0-.46,0-.93,0-1.41s.1-1,.18-1.44a10.87,10.87,0,0,1,.35-1.39,6.45,6.45,0,0,1,.56-1.29,5.79,5.79,0,0,1,.8-1.11,5,5,0,0,1,1.09-.87,5.62,5.62,0,0,1,1.41-.57,6.88,6.88,0,0,1,1.77-.21,5.67,5.67,0,0,1,2.35.47,5,5,0,0,1,1.76,1.27,5.23,5.23,0,0,1,1.09,1.89,6.59,6.59,0,0,1,.34,2.32Z"/><path class="cls-5" d="M157.75,235.27a4.55,4.55,0,0,0,0-1.06,1.58,1.58,0,0,0-.32-.76,1.55,1.55,0,0,0-.68-.46,3.64,3.64,0,0,0-1.13-.15,2.22,2.22,0,0,0-.88.14,1.35,1.35,0,0,0-.56.39,1.46,1.46,0,0,0-.3.58,2.9,2.9,0,0,0-.08.74,1.69,1.69,0,0,0,.09.56,1.92,1.92,0,0,0,.27.46,1.76,1.76,0,0,0,.4.37,2.33,2.33,0,0,0,.52.27l2.3.9a14.25,14.25,0,0,1,2,.93,6.81,6.81,0,0,1,1.37,1,3.69,3.69,0,0,1,.8,1.18,3.45,3.45,0,0,1,.27,1.37,5.49,5.49,0,0,1-.42,2.24,4.22,4.22,0,0,1-1.17,1.58,5.27,5.27,0,0,1-1.83.93,8.81,8.81,0,0,1-2.38.3,9.05,9.05,0,0,1-2.63-.35,4.51,4.51,0,0,1-1.89-1.08,4.36,4.36,0,0,1-1.13-1.86,8.1,8.1,0,0,1-.3-2.73h3.55a7.57,7.57,0,0,0,.09,1.44,2.2,2.2,0,0,0,.41.94,1.67,1.67,0,0,0,.75.51,3.82,3.82,0,0,0,1.15.15,3.23,3.23,0,0,0,.82-.1,2.09,2.09,0,0,0,.71-.32,1.57,1.57,0,0,0,.49-.56,1.74,1.74,0,0,0,.19-.84,2.68,2.68,0,0,0-.14-.91,1.8,1.8,0,0,0-.38-.61,2,2,0,0,0-.59-.43,7.22,7.22,0,0,0-.78-.35l-3.48-1.38a3.75,3.75,0,0,1-2.6-3.75,4.57,4.57,0,0,1,.44-2,4.26,4.26,0,0,1,1.18-1.47,5.12,5.12,0,0,1,1.74-.89,7.34,7.34,0,0,1,2.12-.3,7.67,7.67,0,0,1,2.31.33,4.93,4.93,0,0,1,1.8,1,4.2,4.2,0,0,1,1.13,1.68,5.66,5.66,0,0,1,.32,2.37Z"/><path class="cls-5" d="M726.55,246V229.71h5.75a10,10,0,0,1,1.46.1,6.39,6.39,0,0,1,1.34.31,4.91,4.91,0,0,1,1.17.58,3.7,3.7,0,0,1,.92.89,4,4,0,0,1,.6,1.25,5.43,5.43,0,0,1,.22,1.64,8.06,8.06,0,0,1-.21,2,4.39,4.39,0,0,1-.61,1.4,3.27,3.27,0,0,1-1,.93,5,5,0,0,1-1.29.56,9.12,9.12,0,0,1-1.58.27c-.57.05-1.18.09-1.82.1h-1.41V246Zm3.58-9.19h1l1,0a6.67,6.67,0,0,0,.84-.08,2.36,2.36,0,0,0,.65-.2,1.21,1.21,0,0,0,.46-.38,1.54,1.54,0,0,0,.28-.62,3.61,3.61,0,0,0,.08-.93,2.26,2.26,0,0,0-.23-1.14,1.4,1.4,0,0,0-.65-.6,2.94,2.94,0,0,0-1-.24c-.4,0-.84,0-1.33,0h-1.09Z"/><path class="cls-5" d="M747,241.68h-3.84L741.9,246h-3.8l5-16.32h3.94L752,246h-3.84Zm-3.1-2.66h2.33L745,234.83Z"/><path class="cls-5" d="M761.14,234.77a4.57,4.57,0,0,0,0-1.06,1.57,1.57,0,0,0-.31-.76,1.64,1.64,0,0,0-.69-.46,3.59,3.59,0,0,0-1.13-.15,2.22,2.22,0,0,0-.88.14,1.35,1.35,0,0,0-.56.39,1.53,1.53,0,0,0-.3.58,3.43,3.43,0,0,0-.08.74,1.47,1.47,0,0,0,.1.56,1.61,1.61,0,0,0,.26.46,1.76,1.76,0,0,0,.4.37,2.33,2.33,0,0,0,.52.27l2.3.9a15,15,0,0,1,2,.93,7.11,7.11,0,0,1,1.37,1,3.86,3.86,0,0,1,.8,1.18,3.63,3.63,0,0,1,.26,1.37,5.49,5.49,0,0,1-.42,2.24,4,4,0,0,1-1.17,1.58,5.27,5.27,0,0,1-1.83.93,9.83,9.83,0,0,1-5-.05,4.67,4.67,0,0,1-1.89-1.07,4.34,4.34,0,0,1-1.12-1.87,7.82,7.82,0,0,1-.3-2.72H757a6.71,6.71,0,0,0,.1,1.43,2.19,2.19,0,0,0,.4.94,1.67,1.67,0,0,0,.75.51,3.87,3.87,0,0,0,1.15.15,3.18,3.18,0,0,0,.82-.1,1.91,1.91,0,0,0,.71-.32,1.59,1.59,0,0,0,.5-.56,1.86,1.86,0,0,0,.18-.84,2.69,2.69,0,0,0-.13-.91,1.68,1.68,0,0,0-.39-.61,2,2,0,0,0-.59-.43,7.22,7.22,0,0,0-.78-.35l-3.48-1.38a4,4,0,0,1-2-1.5,4,4,0,0,1-.63-2.25,4.57,4.57,0,0,1,.44-2,4.27,4.27,0,0,1,1.19-1.47,4.94,4.94,0,0,1,1.74-.89,7.27,7.27,0,0,1,2.11-.3,7.67,7.67,0,0,1,2.31.33,4.92,4.92,0,0,1,1.8,1,4.32,4.32,0,0,1,1.14,1.68,5.83,5.83,0,0,1,.31,2.37Z"/><path class="cls-5" d="M774.83,234.77a4.62,4.62,0,0,0,0-1.06,1.69,1.69,0,0,0-.32-.76,1.53,1.53,0,0,0-.69-.46,3.55,3.55,0,0,0-1.13-.15,2.29,2.29,0,0,0-.88.14,1.31,1.31,0,0,0-.55.39,1.53,1.53,0,0,0-.3.58,2.89,2.89,0,0,0-.09.74,1.69,1.69,0,0,0,.1.56,1.64,1.64,0,0,0,.27.46,1.57,1.57,0,0,0,.4.37,2.49,2.49,0,0,0,.51.27l2.31.9a14.82,14.82,0,0,1,2,.93,7.11,7.11,0,0,1,1.37,1,3.69,3.69,0,0,1,.8,1.18,3.45,3.45,0,0,1,.26,1.37,5.5,5.5,0,0,1-.41,2.24,4.16,4.16,0,0,1-1.18,1.58,5.13,5.13,0,0,1-1.82.93,8.86,8.86,0,0,1-2.38.3,8.73,8.73,0,0,1-2.63-.35,4.71,4.71,0,0,1-1.9-1.07,4.44,4.44,0,0,1-1.12-1.87,8.07,8.07,0,0,1-.3-2.72h3.55a6.17,6.17,0,0,0,.09,1.43,2.19,2.19,0,0,0,.4.94,1.71,1.71,0,0,0,.76.51,3.77,3.77,0,0,0,1.15.15,3.23,3.23,0,0,0,.82-.1,1.87,1.87,0,0,0,.7-.32,1.59,1.59,0,0,0,.5-.56,1.86,1.86,0,0,0,.19-.84,2.68,2.68,0,0,0-.14-.91,1.8,1.8,0,0,0-.38-.61,2,2,0,0,0-.6-.43,8,8,0,0,0-.77-.35l-3.49-1.38a3.76,3.76,0,0,1-2.59-3.75,4.44,4.44,0,0,1,.44-2,4.24,4.24,0,0,1,1.18-1.47,5.12,5.12,0,0,1,1.74-.89,7.34,7.34,0,0,1,2.12-.3,7.77,7.77,0,0,1,2.31.33,5.08,5.08,0,0,1,1.8,1A4.3,4.3,0,0,1,778,232.4a5.83,5.83,0,0,1,.32,2.37Z"/><path class="cls-5" d="M781.52,246V229.71h3.61V246Z"/><path class="cls-5" d="M788,237.56c0-.67,0-1.34.07-2a11.59,11.59,0,0,1,.31-1.9A7.14,7.14,0,0,1,789,232a4.74,4.74,0,0,1,1.14-1.35,5.29,5.29,0,0,1,1.74-.9,9.21,9.21,0,0,1,4.85,0,5.17,5.17,0,0,1,1.7.89,4.54,4.54,0,0,1,1.12,1.35,6.9,6.9,0,0,1,.65,1.68,10.58,10.58,0,0,1,.3,1.91c.05.67.08,1.34.08,2s0,1.57-.08,2.32a13.55,13.55,0,0,1-.31,2.11,8.35,8.35,0,0,1-.66,1.8,4.49,4.49,0,0,1-1.13,1.39,5,5,0,0,1-1.72.91,7.75,7.75,0,0,1-2.41.33,7.91,7.91,0,0,1-2.42-.33,5,5,0,0,1-1.71-.89,4.61,4.61,0,0,1-1.13-1.39,8.16,8.16,0,0,1-.66-1.8,13.55,13.55,0,0,1-.31-2.11C788,239.15,788,238.37,788,237.56Zm9,0a18.14,18.14,0,0,0-.09-2.16,5.19,5.19,0,0,0-.4-1.66,2.43,2.43,0,0,0-.84-1.08,2.36,2.36,0,0,0-1.42-.38,2.24,2.24,0,0,0-1.37.38,2.47,2.47,0,0,0-.82,1.08,5.77,5.77,0,0,0-.4,1.66,16.25,16.25,0,0,0-.09,2.16c0,1,0,1.91.09,2.65a7,7,0,0,0,.39,1.84,2.22,2.22,0,0,0,.82,1.07,2.58,2.58,0,0,0,1.41.35,2.64,2.64,0,0,0,1.44-.35,2.17,2.17,0,0,0,.83-1.07,6.63,6.63,0,0,0,.37-1.84C797,239.5,797,238.61,797,237.59Z"/><path class="cls-5" d="M807.63,229.71l4.19,10.5v-10.5h3.58V246h-4.29L807,235.73V246h-3.58V229.71Z"/><path class="cls-6" d="M723.75,94.31a11.65,11.65,0,0,1-3.27,1,24.9,24.9,0,0,1-3.68.26V90.34a18.61,18.61,0,0,0,3.1-.25,6.6,6.6,0,0,0,2.29-.83,4.66,4.66,0,0,0,1.56-1.62,8,8,0,0,0,.86-2.63H731V116.8h-7.29Z"/><path class="cls-6" d="M751.71,84.55a11,11,0,0,1,3.35.46,8.63,8.63,0,0,1,2.56,1.27,8.38,8.38,0,0,1,1.86,1.9,12.27,12.27,0,0,1,1.29,2.36,16.19,16.19,0,0,1,.81,2.64c.19.92.34,1.84.44,2.76s.17,1.81.19,2.69,0,1.69,0,2.44c0,1.2,0,2.43-.13,3.7a26.3,26.3,0,0,1-.5,3.71,16.8,16.8,0,0,1-1.1,3.41,9.26,9.26,0,0,1-1.89,2.81,8.39,8.39,0,0,1-2.87,1.91,11.91,11.91,0,0,1-8.1,0,8.34,8.34,0,0,1-2.88-1.91,9.64,9.64,0,0,1-1.89-2.81,17.46,17.46,0,0,1-1.11-3.41,25,25,0,0,1-.52-3.7c-.09-1.27-.13-2.5-.13-3.71,0-.75,0-1.57,0-2.44s.09-1.78.2-2.69a26.48,26.48,0,0,1,.46-2.76,15.29,15.29,0,0,1,.82-2.64,11.75,11.75,0,0,1,1.29-2.36A8.34,8.34,0,0,1,748.37,85,11,11,0,0,1,751.71,84.55Zm0,26.85a2.26,2.26,0,0,0,1.43-.45,3.32,3.32,0,0,0,1-1.24,7.79,7.79,0,0,0,.6-1.84,20.91,20.91,0,0,0,.31-2.26c.06-.8.1-1.64.11-2.5s0-1.72,0-2.56,0-1.56,0-2.36-.08-1.57-.16-2.32a18,18,0,0,0-.35-2.12A7.7,7.7,0,0,0,754,92a3.41,3.41,0,0,0-.94-1.18,2.21,2.21,0,0,0-1.35-.42,2.11,2.11,0,0,0-1.42.49,4,4,0,0,0-1,1.3,7.81,7.81,0,0,0-.61,1.86,21.77,21.77,0,0,0-.32,2.19c-.08.75-.12,1.5-.14,2.24s0,1.43,0,2.06c0,.84,0,1.7,0,2.56s.06,1.7.14,2.5a20.84,20.84,0,0,0,.32,2.26,7.36,7.36,0,0,0,.61,1.84,3.57,3.57,0,0,0,1,1.24A2.25,2.25,0,0,0,751.71,111.4Z"/><path class="cls-6" d="M777.07,84.55a11,11,0,0,1,3.35.46A8.76,8.76,0,0,1,783,86.28a8.38,8.38,0,0,1,1.86,1.9,12.84,12.84,0,0,1,1.29,2.36,16.19,16.19,0,0,1,.81,2.64c.19.92.34,1.84.44,2.76s.16,1.81.19,2.69,0,1.69,0,2.44c0,1.2,0,2.43-.13,3.7a24.92,24.92,0,0,1-.51,3.71,16.18,16.18,0,0,1-1.09,3.41A9.64,9.64,0,0,1,784,114.7a8.39,8.39,0,0,1-2.87,1.91,11.91,11.91,0,0,1-8.1,0,8.34,8.34,0,0,1-2.88-1.91,9.45,9.45,0,0,1-1.89-2.81,16.81,16.81,0,0,1-1.11-3.41,23.72,23.72,0,0,1-.52-3.7c-.09-1.27-.13-2.5-.13-3.71,0-.75,0-1.57,0-2.44s.09-1.78.2-2.69a26.48,26.48,0,0,1,.46-2.76,16.19,16.19,0,0,1,.81-2.64,12.31,12.31,0,0,1,1.3-2.36,8.42,8.42,0,0,1,1.87-1.9A8.7,8.7,0,0,1,773.72,85,11.08,11.08,0,0,1,777.07,84.55Zm0,26.85a2.28,2.28,0,0,0,1.43-.45,3.42,3.42,0,0,0,1-1.24,7.8,7.8,0,0,0,.59-1.84,16.89,16.89,0,0,0,.31-2.26c.07-.8.11-1.64.12-2.5s0-1.72,0-2.56,0-1.56,0-2.36-.08-1.57-.16-2.32a18,18,0,0,0-.35-2.12,7.7,7.7,0,0,0-.61-1.74,3.43,3.43,0,0,0-1-1.18,2.34,2.34,0,0,0-2.77.07,3.87,3.87,0,0,0-1,1.3,7.81,7.81,0,0,0-.61,1.86q-.21,1.06-.33,2.19c-.07.75-.11,1.5-.13,2.24s0,1.43,0,2.06c0,.84,0,1.7,0,2.56s.06,1.7.13,2.5.19,1.56.33,2.26a7.36,7.36,0,0,0,.61,1.84,3.44,3.44,0,0,0,1,1.24A2.3,2.3,0,0,0,777.07,111.4Z"/><path class="cls-6" d="M800.16,84.42a7.59,7.59,0,0,1,2.4.35,6.05,6.05,0,0,1,1.8,1,5.78,5.78,0,0,1,1.26,1.44,7.77,7.77,0,0,1,.81,1.78,11.86,11.86,0,0,1,.43,2,18.48,18.48,0,0,1,.12,2.1,16.5,16.5,0,0,1-.45,4.15,6.87,6.87,0,0,1-1.36,2.76,5,5,0,0,1-2.28,1.5,8.64,8.64,0,0,1-3.19.31,10,10,0,0,1-2.85-.62,5.08,5.08,0,0,1-2.1-1.5,6.92,6.92,0,0,1-1.3-2.68,15.9,15.9,0,0,1-.45-4.11,14.44,14.44,0,0,1,.34-3.19,7.44,7.44,0,0,1,1.15-2.7,5.82,5.82,0,0,1,2.19-1.87A7.75,7.75,0,0,1,800.16,84.42ZM800,97.1a1.11,1.11,0,0,0,.88-.35,2.31,2.31,0,0,0,.5-.87,5,5,0,0,0,.2-1.13c0-.41,0-.79,0-1.15s0-.81,0-1.32a7.46,7.46,0,0,0-.19-1.45,3.27,3.27,0,0,0-.53-1.18,1.16,1.16,0,0,0-1-.48,1,1,0,0,0-.67.22,1.75,1.75,0,0,0-.45.6,3.61,3.61,0,0,0-.26.84,7.39,7.39,0,0,0-.14,1c0,.33,0,.65,0,1s0,.6,0,.85,0,.74,0,1.15a5,5,0,0,0,.22,1.13,2.19,2.19,0,0,0,.5.87A1.22,1.22,0,0,0,800,97.1Zm4.54,20.35h-5.12l14.88-33.09h4.94Zm21.33-9a14.34,14.34,0,0,1-.53,4.19,7.06,7.06,0,0,1-1.51,2.74,5.56,5.56,0,0,1-2.34,1.49,9.11,9.11,0,0,1-3,.42,7.06,7.06,0,0,1-2.49-.48,5.27,5.27,0,0,1-2.11-1.5,7.5,7.5,0,0,1-1.48-2.74,13.92,13.92,0,0,1-.55-4.25,15,15,0,0,1,.33-3.2,7.14,7.14,0,0,1,1.16-2.68,5.88,5.88,0,0,1,2.21-1.83,8.06,8.06,0,0,1,3.52-.68,6.92,6.92,0,0,1,3.37.74,5.61,5.61,0,0,1,2.08,1.93,7.83,7.83,0,0,1,1.07,2.73A16.18,16.18,0,0,1,825.9,108.48Zm-6.95,4.1a1.13,1.13,0,0,0,.86-.35,2.2,2.2,0,0,0,.48-.85,5.46,5.46,0,0,0,.22-1.11,10.61,10.61,0,0,0,.06-1.07c0-.28,0-.58,0-.91s0-.66-.06-1a7.55,7.55,0,0,0-.15-1,3.43,3.43,0,0,0-.28-.82,1.61,1.61,0,0,0-.48-.58,1.1,1.1,0,0,0-.7-.22,1.12,1.12,0,0,0-.72.22,1.69,1.69,0,0,0-.47.58,3,3,0,0,0-.3.82,7.55,7.55,0,0,0-.15,1c0,.33,0,.66,0,1s0,.63,0,.91,0,.68,0,1.07a4.86,4.86,0,0,0,.24,1.11,2.16,2.16,0,0,0,.53.85A1.3,1.3,0,0,0,819,112.58Z"/><path class="cls-6" d="M513.05,108.48a4.38,4.38,0,0,0,.33,1.5,2.73,2.73,0,0,0,.64,1,2.13,2.13,0,0,0,.87.51,3.4,3.4,0,0,0,1,.15,2.22,2.22,0,0,0,1.18-.32,3.17,3.17,0,0,0,.91-.88,5.3,5.3,0,0,0,.67-1.3,11.84,11.84,0,0,0,.45-1.56c.11-.55.2-1.12.26-1.71s.09-1.15.1-1.7a6,6,0,0,1-2.15,1.57,6.55,6.55,0,0,1-2.39.44,9.88,9.88,0,0,1-4.19-.82,8.41,8.41,0,0,1-2.94-2.22,8.9,8.9,0,0,1-1.73-3.21,12.75,12.75,0,0,1-.57-3.82,13.47,13.47,0,0,1,.76-4.56,11.23,11.23,0,0,1,2.09-3.62,9.54,9.54,0,0,1,7.3-3.27,12.05,12.05,0,0,1,4.15.65,8.81,8.81,0,0,1,5,4.38,15.13,15.13,0,0,1,1.17,3.14,20.06,20.06,0,0,1,.56,3.41q.15,1.75.15,3.39c0,1.29,0,2.62-.1,4a27.94,27.94,0,0,1-.46,4,19.07,19.07,0,0,1-1.07,3.72,9.88,9.88,0,0,1-1.94,3.08,8.69,8.69,0,0,1-3.05,2.1,11.45,11.45,0,0,1-4.43.77,11.14,11.14,0,0,1-3.52-.55,8.54,8.54,0,0,1-2.89-1.65,8.71,8.71,0,0,1-2.06-2.75,10.94,10.94,0,0,1-1-3.83Zm-.46-12.61a11.47,11.47,0,0,0,.16,1.89,4.64,4.64,0,0,0,.56,1.57A2.87,2.87,0,0,0,516,100.8a2.72,2.72,0,0,0,1.55-.42,3.2,3.2,0,0,0,1-1.09,4.94,4.94,0,0,0,.54-1.5,9.35,9.35,0,0,0,.16-1.67,12.51,12.51,0,0,0-.16-2.82,4.61,4.61,0,0,0-.69-1.77,2.63,2.63,0,0,0-1.13-.93,4,4,0,0,0-1.47-.26,2.43,2.43,0,0,0-1.62.53,3.45,3.45,0,0,0-1,1.33,6.53,6.53,0,0,0-.47,1.79A13.61,13.61,0,0,0,512.59,95.87Z"/><path class="cls-6" d="M538.14,107.18a8.92,8.92,0,0,0,.14,2,3.53,3.53,0,0,0,.55,1.33,2.15,2.15,0,0,0,.95.74,3.56,3.56,0,0,0,1.36.23,2.93,2.93,0,0,0,1.67-.44,3.18,3.18,0,0,0,1.05-1.21,5.94,5.94,0,0,0,.56-1.77,13.54,13.54,0,0,0,.16-2.16c0-.47,0-.93-.05-1.38a10.56,10.56,0,0,0-.2-1.31,5.56,5.56,0,0,0-.4-1.15,3.17,3.17,0,0,0-.66-.91,2.76,2.76,0,0,0-1-.61,3.67,3.67,0,0,0-1.35-.23,6.64,6.64,0,0,0-.87.07,3.06,3.06,0,0,0-.92.32,3.75,3.75,0,0,0-.89.71,5,5,0,0,0-.84,1.24h-6.18L533.33,85h17v5.73H539.71l-.33,3.36c0,.17-.07.34-.11.5s-.09.32-.13.47-.09.33-.14.48a5.06,5.06,0,0,1,1.4-.65,6.15,6.15,0,0,1,1.71-.21,9.75,9.75,0,0,1,4.34.9,8.62,8.62,0,0,1,3,2.39,10,10,0,0,1,1.76,3.41,13.86,13.86,0,0,1,.57,4,15.65,15.65,0,0,1-.27,2.87,14.23,14.23,0,0,1-.84,2.76,12,12,0,0,1-1.44,2.47,9.43,9.43,0,0,1-4.75,3.31,10.69,10.69,0,0,1-3.36.49,13.63,13.63,0,0,1-4.33-.65,8.9,8.9,0,0,1-3.29-1.93,8.13,8.13,0,0,1-2-3.16,11,11,0,0,1-.55-4.34Z"/><path class="cls-6" d="M564.48,84.42a7.69,7.69,0,0,1,2.41.35,6,6,0,0,1,1.79,1,5.78,5.78,0,0,1,1.26,1.44,7.77,7.77,0,0,1,.81,1.78,11.86,11.86,0,0,1,.43,2,18.5,18.5,0,0,1,.13,2.1,16,16,0,0,1-.46,4.15,6.74,6.74,0,0,1-1.36,2.76,5,5,0,0,1-2.28,1.5,8.64,8.64,0,0,1-3.19.31,10,10,0,0,1-2.85-.62,5.08,5.08,0,0,1-2.1-1.5,7.06,7.06,0,0,1-1.3-2.68,15.94,15.94,0,0,1-.44-4.11,15.07,15.07,0,0,1,.33-3.19,7.44,7.44,0,0,1,1.15-2.7,5.85,5.85,0,0,1,2.2-1.87A7.71,7.71,0,0,1,564.48,84.42Zm-.13,12.68a1.13,1.13,0,0,0,.89-.35,2.3,2.3,0,0,0,.49-.87,4.53,4.53,0,0,0,.2-1.13c0-.41,0-.79,0-1.15s0-.81,0-1.32a7.46,7.46,0,0,0-.19-1.45,3.44,3.44,0,0,0-.52-1.18,1.19,1.19,0,0,0-1-.48,1,1,0,0,0-.67.22,1.62,1.62,0,0,0-.44.6,3.19,3.19,0,0,0-.27.84,7.39,7.39,0,0,0-.14,1c0,.33,0,.65,0,1s0,.6,0,.85,0,.74,0,1.15a5.66,5.66,0,0,0,.22,1.13,2.09,2.09,0,0,0,.51.87A1.18,1.18,0,0,0,564.35,97.1Zm4.54,20.35h-5.12l14.88-33.09h4.94Zm21.33-9a14.34,14.34,0,0,1-.53,4.19,6.93,6.93,0,0,1-1.51,2.74,5.56,5.56,0,0,1-2.34,1.49,9.11,9.11,0,0,1-3,.42,7,7,0,0,1-2.48-.48,5.23,5.23,0,0,1-2.12-1.5,7.5,7.5,0,0,1-1.48-2.74,13.92,13.92,0,0,1-.55-4.25,15,15,0,0,1,.33-3.2,7.14,7.14,0,0,1,1.16-2.68,6,6,0,0,1,2.21-1.83,8.06,8.06,0,0,1,3.52-.68,6.89,6.89,0,0,1,3.37.74,5.72,5.72,0,0,1,2.09,1.93,8,8,0,0,1,1.06,2.73A16.18,16.18,0,0,1,590.22,108.48Zm-7,4.1a1.11,1.11,0,0,0,.86-.35,2.2,2.2,0,0,0,.48-.85,4.85,4.85,0,0,0,.22-1.11,10.61,10.61,0,0,0,.06-1.07c0-.28,0-.58,0-.91s0-.66,0-1-.09-.66-.15-1a3.42,3.42,0,0,0-.29-.82,1.61,1.61,0,0,0-.48-.58,1.1,1.1,0,0,0-.7-.22,1.12,1.12,0,0,0-.72.22,1.69,1.69,0,0,0-.47.58,3,3,0,0,0-.3.82c-.06.31-.12.64-.15,1s-.05.66-.05,1,0,.63,0,.91a10.61,10.61,0,0,0,.06,1.07,4.38,4.38,0,0,0,.23,1.11,2.16,2.16,0,0,0,.53.85A1.3,1.3,0,0,0,583.27,112.58Z"/><path class="cls-6" d="M70,93.39a5.2,5.2,0,0,0-.34-1.5,2.81,2.81,0,0,0-.63-1,2.24,2.24,0,0,0-.88-.51,3.47,3.47,0,0,0-1-.15A2.24,2.24,0,0,0,66,90.6a3.31,3.31,0,0,0-.9.89,5.59,5.59,0,0,0-.67,1.29A9.41,9.41,0,0,0,64,94.34a13.27,13.27,0,0,0-.26,1.71c-.06.58-.1,1.15-.11,1.7a6.06,6.06,0,0,1,2.15-1.57,6.61,6.61,0,0,1,2.41-.44,9.84,9.84,0,0,1,4.18.82,8.28,8.28,0,0,1,2.93,2.22A9.08,9.08,0,0,1,77,102a12.77,12.77,0,0,1,.57,3.83,13.41,13.41,0,0,1-.75,4.55,11,11,0,0,1-2.1,3.63,9.44,9.44,0,0,1-3.2,2.39,9.55,9.55,0,0,1-4.09.87,12.05,12.05,0,0,1-4.15-.65,8.81,8.81,0,0,1-5-4.38,14.93,14.93,0,0,1-1.17-3.14,21.17,21.17,0,0,1-.57-3.4c-.09-1.17-.14-2.29-.14-3.38,0-1.29,0-2.63.1-4a27.91,27.91,0,0,1,.46-4,19.27,19.27,0,0,1,1.07-3.72A9.86,9.86,0,0,1,60,87.48a8.87,8.87,0,0,1,3.06-2.1,11.45,11.45,0,0,1,4.43-.77,11.06,11.06,0,0,1,3.5.55,8.44,8.44,0,0,1,2.89,1.65A8.74,8.74,0,0,1,76,89.56a11.38,11.38,0,0,1,1,3.83ZM70.48,106a10.51,10.51,0,0,0-.16-1.9,4.63,4.63,0,0,0-.55-1.57,3.08,3.08,0,0,0-1-1.07,3,3,0,0,0-1.62-.4,2.68,2.68,0,0,0-1.54.42,3.18,3.18,0,0,0-1,1.09,5,5,0,0,0-.54,1.51,9.42,9.42,0,0,0-.16,1.66,12.66,12.66,0,0,0,.14,2.82,4.57,4.57,0,0,0,.7,1.78,2.55,2.55,0,0,0,1.13.92,4.1,4.1,0,0,0,1.48.26,2.4,2.4,0,0,0,1.61-.53,3.38,3.38,0,0,0,1-1.33,6.55,6.55,0,0,0,.47-1.78A15.44,15.44,0,0,0,70.48,106Z"/><path class="cls-6" d="M89.14,107.18a8.92,8.92,0,0,0,.14,2,3.53,3.53,0,0,0,.55,1.33,2.15,2.15,0,0,0,1,.74,3.56,3.56,0,0,0,1.36.23,2.93,2.93,0,0,0,1.67-.44,3.18,3.18,0,0,0,1-1.21,5.94,5.94,0,0,0,.56-1.77,13.54,13.54,0,0,0,.16-2.16c0-.47,0-.93,0-1.38a10.56,10.56,0,0,0-.2-1.31,5.56,5.56,0,0,0-.4-1.15,3.17,3.17,0,0,0-.66-.91,2.76,2.76,0,0,0-1-.61,3.67,3.67,0,0,0-1.35-.23,6.64,6.64,0,0,0-.87.07,3.06,3.06,0,0,0-.92.32,3.75,3.75,0,0,0-.89.71,5,5,0,0,0-.84,1.24H82.25L84.33,85h17v5.73H90.71l-.33,3.36c0,.17-.07.34-.11.5s-.09.32-.13.47-.09.33-.14.48a5.06,5.06,0,0,1,1.4-.65,6.15,6.15,0,0,1,1.71-.21,9.75,9.75,0,0,1,4.34.9,8.62,8.62,0,0,1,3,2.39,10,10,0,0,1,1.76,3.41,13.86,13.86,0,0,1,.57,4,15.65,15.65,0,0,1-.27,2.87,14.23,14.23,0,0,1-.84,2.76,12,12,0,0,1-1.44,2.47,9.43,9.43,0,0,1-4.75,3.31,10.69,10.69,0,0,1-3.36.49,13.63,13.63,0,0,1-4.33-.65,8.9,8.9,0,0,1-3.29-1.93,8.13,8.13,0,0,1-2-3.16,11,11,0,0,1-.55-4.34Z"/><path class="cls-6" d="M115.48,84.42a7.69,7.69,0,0,1,2.41.35,6,6,0,0,1,1.79,1,5.78,5.78,0,0,1,1.26,1.44,7.77,7.77,0,0,1,.81,1.78,11.86,11.86,0,0,1,.43,2,18.5,18.5,0,0,1,.13,2.1,16,16,0,0,1-.46,4.15,6.74,6.74,0,0,1-1.36,2.76,5,5,0,0,1-2.28,1.5,8.64,8.64,0,0,1-3.19.31,10,10,0,0,1-2.85-.62,5.08,5.08,0,0,1-2.1-1.5,7.06,7.06,0,0,1-1.3-2.68,15.94,15.94,0,0,1-.44-4.11,15.07,15.07,0,0,1,.33-3.19,7.44,7.44,0,0,1,1.15-2.7,5.85,5.85,0,0,1,2.2-1.87A7.71,7.71,0,0,1,115.48,84.42Zm-.13,12.68a1.13,1.13,0,0,0,.89-.35,2.3,2.3,0,0,0,.49-.87,4.53,4.53,0,0,0,.2-1.13c0-.41,0-.79,0-1.15s0-.81,0-1.32a7.46,7.46,0,0,0-.19-1.45,3.44,3.44,0,0,0-.52-1.18,1.19,1.19,0,0,0-1-.48,1,1,0,0,0-.67.22,1.62,1.62,0,0,0-.44.6,3.19,3.19,0,0,0-.27.84,7.39,7.39,0,0,0-.14,1c0,.33,0,.65,0,1s0,.6,0,.85,0,.74,0,1.15a5.66,5.66,0,0,0,.22,1.13,2.09,2.09,0,0,0,.51.87A1.18,1.18,0,0,0,115.35,97.1Zm4.54,20.35h-5.12l14.88-33.09h4.94Zm21.33-9a14.34,14.34,0,0,1-.53,4.19,6.93,6.93,0,0,1-1.51,2.74,5.56,5.56,0,0,1-2.34,1.49,9.11,9.11,0,0,1-3,.42,7,7,0,0,1-2.48-.48,5.23,5.23,0,0,1-2.12-1.5,7.5,7.5,0,0,1-1.48-2.74,13.92,13.92,0,0,1-.55-4.25,15,15,0,0,1,.33-3.2,7.14,7.14,0,0,1,1.16-2.68,6,6,0,0,1,2.21-1.83,8.06,8.06,0,0,1,3.52-.68,6.89,6.89,0,0,1,3.37.74,5.72,5.72,0,0,1,2.09,1.93,8,8,0,0,1,1.06,2.73A16.18,16.18,0,0,1,141.22,108.48Zm-6.95,4.1a1.11,1.11,0,0,0,.86-.35,2.2,2.2,0,0,0,.48-.85,4.85,4.85,0,0,0,.22-1.11,10.61,10.61,0,0,0,.06-1.07c0-.28,0-.58,0-.91s0-.66,0-1-.09-.66-.15-1a3.42,3.42,0,0,0-.29-.82,1.61,1.61,0,0,0-.48-.58,1.1,1.1,0,0,0-.7-.22,1.12,1.12,0,0,0-.72.22,1.69,1.69,0,0,0-.47.58,3,3,0,0,0-.3.82c-.06.31-.12.64-.15,1s0,.66,0,1,0,.63,0,.91a10.61,10.61,0,0,0,.06,1.07,4.38,4.38,0,0,0,.23,1.11,2.16,2.16,0,0,0,.53.85A1.3,1.3,0,0,0,134.27,112.58Z"/><path class="cls-6" d="M282.07,85h20v5a46,46,0,0,0-6.91,12.5,51.12,51.12,0,0,0-2,6.93,62.39,62.39,0,0,0-1.11,7.36h-7.73a68.87,68.87,0,0,1,1.36-7.18,63,63,0,0,1,2.14-6.91,57.94,57.94,0,0,1,2.9-6.47,47.14,47.14,0,0,1,3.68-5.9H282.07Z"/><path class="cls-6" d="M313.46,107.18a8.35,8.35,0,0,0,.14,2,3.53,3.53,0,0,0,.55,1.33,2.09,2.09,0,0,0,1,.74,3.56,3.56,0,0,0,1.36.23,2.89,2.89,0,0,0,1.66-.44,3.12,3.12,0,0,0,1.06-1.21,5.94,5.94,0,0,0,.55-1.77,13.51,13.51,0,0,0,.17-2.16q0-.7-.06-1.38a9,9,0,0,0-.19-1.31,5.56,5.56,0,0,0-.4-1.15,3.17,3.17,0,0,0-.66-.91,2.72,2.72,0,0,0-1-.61,3.65,3.65,0,0,0-1.34-.23,6.93,6.93,0,0,0-.88.07,3,3,0,0,0-.91.32,4,4,0,0,0-.9.71,5.55,5.55,0,0,0-.84,1.24h-6.17L308.65,85h17v5.73H315l-.34,3.36a4,4,0,0,1-.11.5c0,.17-.08.32-.12.47s-.09.33-.15.48a5.25,5.25,0,0,1,1.41-.65,6.12,6.12,0,0,1,1.7-.21,9.72,9.72,0,0,1,4.34.9,8.66,8.66,0,0,1,3,2.39,10,10,0,0,1,1.76,3.41,13.86,13.86,0,0,1,.57,4,14.84,14.84,0,0,1-.28,2.87A13,13,0,0,1,326,111a11.51,11.51,0,0,1-1.43,2.47,9.43,9.43,0,0,1-4.75,3.31,10.73,10.73,0,0,1-3.36.49,13.73,13.73,0,0,1-4.34-.65,8.86,8.86,0,0,1-3.28-1.93,8,8,0,0,1-2-3.16,11,11,0,0,1-.56-4.34Z"/><path class="cls-6" d="M339.8,84.42a7.59,7.59,0,0,1,2.4.35,6.05,6.05,0,0,1,1.8,1,5.78,5.78,0,0,1,1.26,1.44,7.77,7.77,0,0,1,.81,1.78,11.86,11.86,0,0,1,.43,2,18.48,18.48,0,0,1,.12,2.1,16.5,16.5,0,0,1-.45,4.15A6.75,6.75,0,0,1,344.8,100a4.91,4.91,0,0,1-2.27,1.5,8.66,8.66,0,0,1-3.19.31,10,10,0,0,1-2.85-.62,5.08,5.08,0,0,1-2.1-1.5,6.92,6.92,0,0,1-1.3-2.68,15.9,15.9,0,0,1-.45-4.11,15.07,15.07,0,0,1,.33-3.19,7.8,7.8,0,0,1,1.15-2.7,5.93,5.93,0,0,1,2.2-1.87A7.75,7.75,0,0,1,339.8,84.42Zm-.13,12.68a1.12,1.12,0,0,0,.88-.35,2.17,2.17,0,0,0,.49-.87,4.53,4.53,0,0,0,.21-1.13c0-.41,0-.79,0-1.15s0-.81,0-1.32a7.46,7.46,0,0,0-.19-1.45,3.45,3.45,0,0,0-.53-1.18,1.18,1.18,0,0,0-1-.48,1,1,0,0,0-.66.22,1.75,1.75,0,0,0-.45.6,4.15,4.15,0,0,0-.27.84,9.66,9.66,0,0,0-.13,1c0,.33,0,.65,0,1s0,.6,0,.85,0,.74,0,1.15a4.53,4.53,0,0,0,.22,1.13,2.19,2.19,0,0,0,.5.87A1.22,1.22,0,0,0,339.67,97.1Zm4.54,20.35h-5.13L354,84.36h4.94Zm21.33-9a14.34,14.34,0,0,1-.53,4.19,7.06,7.06,0,0,1-1.51,2.74,5.56,5.56,0,0,1-2.34,1.49,9.11,9.11,0,0,1-3,.42,7.06,7.06,0,0,1-2.49-.48,5.2,5.2,0,0,1-2.11-1.5,7.5,7.5,0,0,1-1.48-2.74,13.9,13.9,0,0,1-.56-4.25,14.4,14.4,0,0,1,.34-3.2,7.14,7.14,0,0,1,1.16-2.68,5.88,5.88,0,0,1,2.21-1.83,8,8,0,0,1,3.51-.68,6.93,6.93,0,0,1,3.38.74,5.61,5.61,0,0,1,2.08,1.93,7.83,7.83,0,0,1,1.07,2.73A16.18,16.18,0,0,1,365.54,108.48Zm-7,4.1a1.09,1.09,0,0,0,.85-.35,2.09,2.09,0,0,0,.49-.85,5.46,5.46,0,0,0,.22-1.11,10.61,10.61,0,0,0,.06-1.07c0-.28,0-.58,0-.91s0-.66-.06-1a7.55,7.55,0,0,0-.15-1,3.43,3.43,0,0,0-.28-.82,1.72,1.72,0,0,0-.48-.58,1.13,1.13,0,0,0-.71-.22,1.11,1.11,0,0,0-.71.22,1.84,1.84,0,0,0-.48.58,3.42,3.42,0,0,0-.29.82,7.55,7.55,0,0,0-.15,1q0,.49-.06,1v.91a10.41,10.41,0,0,0,.05,1.07,4.86,4.86,0,0,0,.24,1.11,2.16,2.16,0,0,0,.53.85A1.28,1.28,0,0,0,358.59,112.58Z"/></g></g></svg>