<svg xmlns="http://www.w3.org/2000/svg" viewBox="0 0 168.74 272.76"><defs><style>.cls-1{fill:#fff;}</style></defs><title>Asset 2</title><g id="Layer_2" data-name="Layer 2"><g id="Layer_1-2" data-name="Layer 1"><path class="cls-1" d="M.06,95.11A107.94,107.94,0,0,1,5.38,56.7,85,85,0,0,1,22.77,26.6,79.09,79.09,0,0,1,50.47,7,90.9,90.9,0,0,1,86.74,0a103.45,103.45,0,0,1,33.09,5.06,73.41,73.41,0,0,1,25.88,14.73,66.37,66.37,0,0,1,16.87,23.74q6,14.09,6.16,32A63.57,63.57,0,0,1,165.24,96a67.64,67.64,0,0,1-8.3,16,89.78,89.78,0,0,1-11.1,12.91q-6,5.78-11.61,11.22-5.19,4.8-10.12,9.47a68.59,68.59,0,0,0-8.76,10.06,48.93,48.93,0,0,0-6.16,11.87,43.47,43.47,0,0,0-2.34,14.79l-.26,19.08H64.16l.13-22.32a59.71,59.71,0,0,1,3.76-19.59,76.83,76.83,0,0,1,8.24-15.77,99.26,99.26,0,0,1,10.71-13q5.84-6,11.16-11.55,4.28-4.41,9.15-9.34a85.84,85.84,0,0,0,9-10.7,56.33,56.33,0,0,0,6.62-12.39A35.17,35.17,0,0,0,125,72.27a48.41,48.41,0,0,0-3.83-14.4,35.29,35.29,0,0,0-7.72-11.09,32.71,32.71,0,0,0-11.55-7.08,44.5,44.5,0,0,0-15.31-2.46q-11.69,0-20,4.67A39.9,39.9,0,0,0,52.81,54.5,54.38,54.38,0,0,0,45,72.92a92.38,92.38,0,0,0-2.34,22.19Zm111.46,132.6.36,45H64.81l-.35-45Z"/></g></g></svg>