<svg xmlns="http://www.w3.org/2000/svg" viewBox="0 0 44.93 43.14"><defs><style>.cls-1{fill:#fff;}</style></defs><title>Asset 5</title><g id="Layer_2" data-name="Layer 2"><g id="Layer_1-2" data-name="Layer 1"><path class="cls-1" d="M14.92,9.33l2,.57a2.49,2.49,0,0,0,.28.63l-1.06,1.84c-.07.14-.07.29.07.36l1.63,1.62c.14.07.28.14.35.07l1.84-1.06c.21.07.42.21.63.28l.57,2c.07.15.14.22.28.22h2.27c.14,0,.28-.07.28-.22l.56-2a2.4,2.4,0,0,0,.64-.28l1.84,1.06c.14.07.28.07.35-.07l1.63-1.62c.07-.08.14-.29.07-.36l-1.06-1.84c.07-.21.21-.42.28-.63l2-.57c.14-.07.21-.14.21-.28V6.72c0-.15-.07-.29-.21-.29l-2-.56a2.55,2.55,0,0,0-.28-.64L29.2,3.39c.07-.14.07-.28-.07-.35L27.5,1.41c-.14,0-.28-.07-.42,0L25.24,2.47c-.21-.07-.42-.21-.64-.28L24,.21C24,.07,23.9,0,23.75,0H21.49c-.14,0-.28.07-.28.21l-.57,2.05a2.22,2.22,0,0,0-.63.29L18.17,1.41c-.14-.07-.28-.07-.35.07L16.19,3.11c-.07.07-.14.28-.07.35L17.18,5.3c-.07.21-.21.43-.28.64l-2,.56c-.14.07-.22.15-.22.29V9.05A.31.31,0,0,0,14.92,9.33ZM23.05,4.6A3.46,3.46,0,0,1,26,7.49a3.33,3.33,0,0,1-3.75,3.75,3.44,3.44,0,0,1-2.9-2.9A3.33,3.33,0,0,1,23.05,4.6Z"/><path class="cls-1" d="M4.67,8.91l1.41.35.21.43L5.59,11a.19.19,0,0,0,0,.28L6.65,12.3a.21.21,0,0,0,.28,0l1.27-.71.43.22L9,13.22c0,.07.14.14.21.14h1.56c.07,0,.21-.07.21-.14l.35-1.41a1,1,0,0,1,.43-.14l1.27.7a.21.21,0,0,0,.28,0l1.06-1.06c.07-.07.07-.14,0-.28l-.42-.78a1.64,1.64,0,0,1-.5-1.13V6.86a1.62,1.62,0,0,1,.5-1.13L14.35,5a.21.21,0,0,0,0-.28L13.29,3.53A.42.42,0,0,0,13,3.46l-1.27.71L11.31,4,11,2.55c0-.08-.14-.15-.21-.15H9.19c-.07,0-.21.07-.21.15L8.63,4a1.08,1.08,0,0,1-.43.14L6.93,3.39c-.07.07-.21.07-.28.14L5.59,4.6c-.08.07-.08.14,0,.28l.7,1.27a1,1,0,0,0-.14.42l-1.41.36c-.07,0-.14.14-.14.21V8.7C4.52,8.77,4.6,8.84,4.67,8.91Zm5.58-3.25a2.4,2.4,0,0,1,2,2,2.25,2.25,0,0,1-2.54,2.54,2.4,2.4,0,0,1-2-2A2.24,2.24,0,0,1,10.25,5.66Z"/><path class="cls-1" d="M31.32,10.18,30.9,11a.19.19,0,0,0,0,.28L32,12.3a.21.21,0,0,0,.28,0l1.27-.71.43.22.35,1.41c0,.07.14.14.21.14h1.56c.07,0,.21-.07.21-.14l.35-1.41a1,1,0,0,1,.43-.14l1.27.7a.21.21,0,0,0,.28,0l1.06-1.06c.07-.07.07-.14,0-.28L39,9.76a1,1,0,0,0,.15-.43L40.51,9c.07,0,.14-.14.14-.21V7.21c0-.07-.07-.21-.14-.21L39.1,6.65l-.22-.43L39.59,5a.21.21,0,0,0,0-.28l-1-1.14a.42.42,0,0,0-.28-.07l-1.27.71L36.62,4l-.35-1.41c0-.08-.14-.15-.21-.15H34.5c-.07,0-.21.07-.21.15L33.94,4a1.08,1.08,0,0,1-.43.14l-1.27-.71a.17.17,0,0,0-.28.07L30.9,4.52c-.08.08-.08.15,0,.29l.42.85a1.66,1.66,0,0,1,.49,1.13V9.05A1.68,1.68,0,0,1,31.32,10.18Zm4.24-4.52a2.4,2.4,0,0,1,2,2A2.25,2.25,0,0,1,35,10.18a2.4,2.4,0,0,1-2-2A2.24,2.24,0,0,1,35.56,5.66Z"/><path class="cls-1" d="M36.23,23.69c2,0,3.12-2.17,3.12-4.48,0-3.34-.93-3.94-3.1-3.94s-3.08.58-3.08,3.94C33.17,22.07,34.31,23.69,36.23,23.69Z"/><path class="cls-1" d="M42.16,24.84l-2.27,0L38.48,27.4H34l-1.41-2.59-2.44,0a2.42,2.42,0,0,0-2.6,2.22v1.07l1.6,0a3.77,3.77,0,0,1,3.91,3.18v.1l0,6.26a16.38,16.38,0,0,0,3.36.35c3.42,0,6.29-.86,8.48-3.15l0-7.83A2.67,2.67,0,0,0,42.16,24.84Z"/><path class="cls-1" d="M8.66,23.69c1.95,0,3.12-2.17,3.12-4.48,0-3.34-.94-3.94-3.1-3.94s-3.08.58-3.08,3.94C5.6,22.07,6.74,23.69,8.66,23.69Z"/><path class="cls-1" d="M11.9,31.38v0a3.51,3.51,0,0,1,3.71-3.23h1.74V27.05a2.68,2.68,0,0,0-2.78-2.21l-2.26,0L10.91,27.4H6.45L5,24.81l-2.45,0A2.41,2.41,0,0,0,0,27.05v7.84C2.19,37.08,5.52,38,8.86,38a15.63,15.63,0,0,0,3-.27V31.38Z"/><path class="cls-1" d="M22.47,27.66c2.32,0,3.57-2.63,3.58-5.1,0-1.89-.26-3-.85-3.68a3.46,3.46,0,0,0-2.71-.83c-2.43,0-3.52.65-3.52,4.51C19,25.75,20.28,27.66,22.47,27.66Z"/><path class="cls-1" d="M29.17,29.61l-1.61,0H27l-1.4,2.57-.2.36H19.56l-.19-.36L18,29.58H15.62a2,2,0,0,0-2.25,1.85V40c2.16,2,5.46,3.15,9.33,3.15s6.72-1,8.89-3.15V31.46A2.34,2.34,0,0,0,29.17,29.61Z"/></g></g></svg>