<svg xmlns="http://www.w3.org/2000/svg" viewBox="0 0 35.66 44.31"><defs><style>.cls-1{fill:#fff;}</style></defs><title>Asset 1</title><g id="Layer_2" data-name="Layer 2"><g id="Layer_1-2" data-name="Layer 1"><path class="cls-1" d="M2.55,38.87.06,36.63a.18.18,0,0,1,0-.18.18.18,0,0,1,.14-.13l3.36-.42,1.41-3a.17.17,0,0,1,.16-.1.16.16,0,0,1,.15.1l1.41,3,3.36.42a.17.17,0,0,1,.14.13.18.18,0,0,1-.05.18L7.6,38.87l.68,3.35a.2.2,0,0,1-.07.18.19.19,0,0,1-.19,0L5.08,40.7,2.14,42.41a.18.18,0,0,1-.19,0,.16.16,0,0,1-.07-.18Z"/><path class="cls-1" d="M15.32,40.75l-2.49-2.24a.18.18,0,0,1-.05-.18.18.18,0,0,1,.14-.13l3.37-.42,1.4-3a.18.18,0,0,1,.16-.1.16.16,0,0,1,.15.1l1.41,3,3.36.42a.17.17,0,0,1,.14.13.18.18,0,0,1-.05.18l-2.49,2.24L21,44.1a.17.17,0,0,1-.06.18.2.2,0,0,1-.2,0l-2.93-1.71-2.94,1.71a.18.18,0,0,1-.19,0,.16.16,0,0,1-.07-.18Z"/><path class="cls-1" d="M28.06,38.87l-2.5-2.24a.18.18,0,0,1,0-.18.18.18,0,0,1,.15-.13L29,35.9l1.4-3a.18.18,0,0,1,.32,0l1.4,3,3.36.42a.18.18,0,0,1,.15.13.18.18,0,0,1,0,.18l-2.49,2.24.67,3.35a.18.18,0,0,1-.07.18.18.18,0,0,1-.19,0L30.58,40.7l-2.94,1.71a.19.19,0,0,1-.19,0,.2.2,0,0,1-.07-.18Z"/><path class="cls-1" d="M26.51,14.06l-3.33,0-3.64,6.66-.48-3.37.56-1.12a1.41,1.41,0,0,0-.8-2.17h-2a1.41,1.41,0,0,0-.8,2.17l.56,1.12-.48,3.37L12.48,14,8.89,14a3.57,3.57,0,0,0-3.82,3.27V28.83c3.22,3.23,8.11,4.62,13,4.62s9.23-1.27,12.46-4.63l0-11.51A3.93,3.93,0,0,0,26.51,14.06Z"/><path class="cls-1" d="M13.3,5.79C13.3.86,14.65,0,17.83,0s4.56.88,4.56,5.79c0,3.4-1.72,6.59-4.59,6.59S13.3,10,13.3,5.79Z"/></g></g></svg>