<svg xmlns="http://www.w3.org/2000/svg" viewBox="0 0 47.08 43.93"><defs><style>.cls-1{fill:#fff;}</style></defs><title>Asset 4</title><g id="Layer_2" data-name="Layer 2"><g id="Layer_1-2" data-name="Layer 1"><path class="cls-1" d="M45.32,30.44A10.35,10.35,0,0,0,42,31.64a56.67,56.67,0,0,0-6,3.47,1.65,1.65,0,0,1-.39.24,7.31,7.31,0,0,1-2.38,1A73.46,73.46,0,0,1,21.45,37.5H21A.58.58,0,0,1,20.4,37a.6.6,0,0,1,.52-.67l10.44-1a2.26,2.26,0,0,0,2-2.43,2.21,2.21,0,0,0-2.38-2l-9.29-.1a9.13,9.13,0,0,1-2.24-.33,14.51,14.51,0,0,0-11.15.67,2.14,2.14,0,0,0-2-1.05l-4,.28A2.35,2.35,0,0,0,0,32.92l.66,8.86a2.38,2.38,0,0,0,2.58,2.15l4-.29a2,2,0,0,0,1.81-1.28l17.58.76a9.64,9.64,0,0,0,5.53-.95l.52-.29,13.25-7.67a2.25,2.25,0,0,0,1.14-1.76A1.87,1.87,0,0,0,45.32,30.44ZM4.68,41.83A1.34,1.34,0,0,1,3.29,40.5a1.38,1.38,0,0,1,1.39-1.34,1.34,1.34,0,1,1,0,2.67Zm30.58-10a57.93,57.93,0,0,1,5.63-2.67,2.23,2.23,0,0,1,2.19.19,14.13,14.13,0,0,0-1.53.67,64.11,64.11,0,0,0-5.71,3.24l-.43.28v-.76a6.09,6.09,0,0,0-.19-.91Zm4.2-3.58c-1.1.48-3.15,1.19-4.15,1.77l-.67.38s-.14.09-.19.14a4.79,4.79,0,0,0-1-.91c.9-.47,3-1.14,3.9-1.52A2.08,2.08,0,0,1,39.46,28.25ZM22.36,16.1l-1.49-1.53L22.45,13l1.49,1.53L27.55,11l1.57,1.57L25.51,16.1l-1.57,1.58Zm-10.83.18,3.58,1a4.19,4.19,0,0,0,.5,1.11l-1.86,3.21c-.12.25-.12.49.13.62L16.72,25c.24.13.49.25.61.13l3.21-1.85c.37.12.74.37,1.11.49l1,3.45c.12.25.24.37.49.37h3.95c.24,0,.49-.12.49-.37l1-3.57a4.53,4.53,0,0,0,1.11-.5L32.88,25c.24.13.49.13.61-.12l2.84-2.84c.12-.12.25-.49.12-.61L34.6,18.26c.13-.37.37-.74.5-1.11l3.57-1c.25-.12.37-.25.37-.49V11.72c0-.25-.12-.49-.37-.49l-3.57-1a4.53,4.53,0,0,0-.5-1.11l1.85-3.21c.13-.25.13-.49-.12-.62L33.49,2.47c-.24,0-.49-.13-.74,0l-3.2,1.85c-.37-.13-.74-.37-1.11-.5l-1-3.45C27.32.12,27.2,0,27,0H23c-.25,0-.5.12-.5.37L21.53,4a4.14,4.14,0,0,0-1.11.49l-3.21-2c-.25-.13-.49-.13-.62.12L13.75,5.43c-.12.12-.24.49-.12.61l1.85,3.21c-.12.37-.37.74-.49,1.11l-3.58,1c-.25.12-.37.25-.37.49v3.95A.53.53,0,0,0,11.53,16.28ZM25.72,8a6,6,0,0,1,5.06,5.06,5.82,5.82,0,0,1-6.54,6.54,6,6,0,0,1-5.06-5.06A5.82,5.82,0,0,1,25.72,8Z"/></g></g></svg>