<svg xmlns="http://www.w3.org/2000/svg" viewBox="0 0 37.75 44.28"><defs><style>.cls-1{fill:#fff;}</style></defs><title>Asset 2</title><g id="Layer_2" data-name="Layer 2"><g id="Layer_1-2" data-name="Layer 1"><path class="cls-1" d="M19.16,39.92a.72.72,0,0,1-.29.06.71.71,0,0,1-.28-.06C.69,32.17,3.7,11,3.73,10.78a.72.72,0,0,1,.65-.61,27.16,27.16,0,0,0,14-5.84.72.72,0,0,1,1,0,27.16,27.16,0,0,0,14,5.84.72.72,0,0,1,.65.61c0,.21,3,21.39-14.86,29.14M37.53,7.77A37.53,37.53,0,0,1,18.87,0,37.44,37.44,0,0,1,.22,7.77a45.29,45.29,0,0,0,.89,14.38c2.43,10.53,8.4,18,17.76,22.13,9.37-4.15,15.34-11.6,17.77-22.13a45.29,45.29,0,0,0,.89-14.38"/><path class="cls-1" d="M32.66,11.54A28.4,28.4,0,0,1,18.87,5.8,28.3,28.3,0,0,1,5.09,11.54c-.32,3.28-1.22,20.22,13.78,26.94C33.9,31.75,33,14.82,32.66,11.54Zm-13,13.7-2.83,2.82L14,25.24l-2.67-2.75,2.82-2.83,2.67,2.75L23.32,16l2.82,2.83Z"/></g></g></svg>